<svg width="38" height="60" viewBox="0 0 38 60" fill="none" xmlns="http://www.w3.org/2000/svg">
  <g clip-path="url(#clip0_104_754)">
    <path d="M19 55.75C15.0992 55.75 11.3595 54.2207 8.60318 51.5007L7.90077 52.2125C10.8456 55.1186 14.8382 56.75 19 56.75V55.75ZM19 4.25C22.9008 4.25 26.6405 5.77926 29.3968 8.49929L30.0992 7.78751C27.1544 4.88144 23.1618 3.25 19 3.25V4.25ZM20.6947 11.4433C20.2441 10.9986 19.6344 10.75 19 10.75C18.3656 10.75 17.7559 10.9986 17.3053 11.4433C16.8545 11.8882 16.6 12.493 16.6 13.125V20.625C16.6 21.257 16.8545 21.8618 17.3053 22.3067C17.7559 22.7514 18.3656 23 19 23C19.6344 23 20.2441 22.7514 20.6947 22.3067C21.1455 21.8618 21.4 21.257 21.4 20.625V13.125C21.4 12.493 21.1455 11.8882 20.6947 11.4433ZM5.91618 5.84763C9.38511 2.42435 14.0914 0.5 19 0.5C23.9086 0.5 28.6149 2.42435 32.0838 5.84763C35.5525 9.2707 37.5 13.912 37.5 18.75V41.25C37.5 46.088 35.5525 50.7293 32.0838 54.1524C28.6149 57.5756 23.9086 59.5 19 59.5C14.0914 59.5 9.38511 57.5756 5.91618 54.1524C2.44747 50.7293 0.5 46.088 0.5 41.25V18.75C0.5 13.912 2.44747 9.2707 5.91618 5.84763Z" stroke="white"/>
  </g>
  <defs>
    <clipPath id="clip0_104_754">
      <rect width="38" height="60" fill="white"/>
    </clipPath>
  </defs>
</svg>
