<svg width="150" height="45" viewBox="0 0 150 45"  xmlns="http://www.w3.org/2000/svg">
<g clip-path="url(#clip0_36_901)">
<path fill-rule="evenodd" clip-rule="evenodd" d="M52.0744 0.128288C52.0744 9.31547 52.0744 18.5053 52.0744 27.6924C49.6192 27.6924 47.163 27.6924 44.7078 27.6924C44.7078 18.548 44.7078 9.40085 44.7078 0.256493C45.2895 0.0411083 46.3359 0.128288 47.121 0.128288C48.772 0.128288 50.4234 0.128288 52.0744 0.128288ZM55.7577 0.128288C65.2402 0.128288 74.7257 0.128288 84.2082 0.128288C84.3988 0.65239 84.3352 1.58419 84.3352 2.30778C84.3352 3.7606 84.3352 5.21393 84.3352 6.66675C83.4991 6.97534 81.9668 6.79495 80.9059 6.79495C78.4929 6.79495 76.0792 6.79495 73.6663 6.79495C73.6663 13.7601 73.6663 20.7273 73.6663 27.6924C71.211 27.6924 68.7549 27.6924 66.2996 27.6924C66.2996 20.7273 66.2996 13.7601 66.2996 6.79495C62.786 6.79495 59.2714 6.79495 55.7577 6.79495C55.7577 4.5729 55.7577 2.35034 55.7577 0.128288ZM108.721 7.30778C108.721 9.3588 108.721 11.4106 108.721 13.4616C107.938 13.38 106.896 13.0356 106.181 12.8206C105.292 12.7351 104.403 12.6497 103.514 12.5642C103.514 12.5215 103.514 12.4787 103.514 12.436C103.048 12.436 102.582 12.436 102.117 12.436C102.117 12.3933 102.117 12.3505 102.117 12.3078C101.494 12.1325 98.8886 12.3055 98.4334 12.436C98.0948 12.436 97.7559 12.436 97.4173 12.436C97.4173 12.4787 97.4173 12.5215 97.4173 12.5642C97.248 12.5642 97.0786 12.5642 96.9093 12.5642C96.9093 12.6069 96.9093 12.6497 96.9093 12.6924C96.6553 12.7351 96.4012 12.7779 96.1472 12.8206C96.1472 12.8633 96.1472 12.9061 96.1472 12.9488C95.9779 12.9915 95.8085 13.0343 95.6392 13.077C95.6392 13.1197 95.6392 13.1625 95.6392 13.2052C95.5545 13.2052 95.4699 13.2052 95.3852 13.2052C95.3429 13.2907 95.3004 13.3761 95.2581 13.4616C95.0464 13.6325 94.8348 13.8035 94.6231 13.9744C94.5384 14.2309 94.4538 14.4873 94.3691 14.7437C94.3268 14.7437 94.2843 14.7437 94.2421 14.7437C94.1998 15.5983 94.1573 16.4532 94.115 17.3078C94.1149 18.6915 94.0674 20.0655 94.6231 20.8975C94.7924 21.0257 94.9618 21.1539 95.1311 21.2821C95.2158 21.4103 95.3004 21.5385 95.3852 21.6667C95.4699 21.6667 95.5545 21.6667 95.6392 21.6667C95.6815 21.7523 95.7239 21.8376 95.7662 21.9232C95.8932 21.9232 96.0202 21.9232 96.1472 21.9232C96.1472 21.9659 96.1472 22.0087 96.1472 22.0514C96.2319 22.0514 96.3165 22.0514 96.4012 22.0514C96.4012 22.0941 96.4012 22.1369 96.4012 22.1796C96.5283 22.1796 96.6553 22.1796 96.7823 22.1796C96.7823 22.2223 96.7823 22.2651 96.7823 22.3078C97.2479 22.3505 97.7138 22.3933 98.1794 22.436C98.1794 22.4787 98.1794 22.5215 98.1794 22.5642C98.8143 22.5642 99.4496 22.5642 100.085 22.5642C101.748 22.5643 103.472 22.5623 104.784 22.1796C105.08 22.1796 105.377 22.1796 105.673 22.1796C105.673 22.1369 105.673 22.0941 105.673 22.0514C105.885 22.0514 106.096 22.0514 106.308 22.0514C106.308 22.0087 106.308 21.9659 106.308 21.9232C106.52 21.9232 106.731 21.9232 106.943 21.9232C106.943 21.8805 106.943 21.8376 106.943 21.795C107.536 21.6667 108.129 21.5385 108.721 21.4103C108.721 23.4614 108.721 25.5132 108.721 27.5642C108.425 27.6069 108.129 27.6497 107.832 27.6924C107.832 27.7351 107.832 27.7779 107.832 27.8206C107.621 27.8206 107.409 27.8206 107.197 27.8206C107.197 27.8633 107.197 27.9061 107.197 27.9488C106.943 27.9488 106.689 27.9488 106.435 27.9488C106.435 27.9915 106.435 28.0343 106.435 28.077C106.181 28.077 105.927 28.077 105.673 28.077C105.673 28.1197 105.673 28.1625 105.673 28.2052C105.377 28.2052 105.08 28.2052 104.784 28.2052C104.784 28.2479 104.784 28.2907 104.784 28.3334C104.403 28.3334 104.022 28.3334 103.641 28.3334C103.641 28.3761 103.641 28.4189 103.641 28.4616C103.048 28.4616 102.455 28.4616 101.863 28.4616C101.863 28.5043 101.863 28.5471 101.863 28.5898C101.215 28.7721 98.4076 28.5983 97.9254 28.4616C97.4173 28.4616 96.9093 28.4616 96.4012 28.4616C96.4012 28.4189 96.4012 28.3761 96.4012 28.3334C96.1049 28.3334 95.8085 28.3334 95.5122 28.3334C95.5122 28.2907 95.5122 28.2479 95.5122 28.2052C95.3004 28.2052 95.0888 28.2052 94.8771 28.2052C94.8771 28.1625 94.8771 28.1197 94.8771 28.077C94.7078 28.077 94.5384 28.077 94.3691 28.077C94.3691 28.0343 94.3691 27.9915 94.3691 27.9488C94.2421 27.9488 94.115 27.9488 93.988 27.9488C93.988 27.9061 93.988 27.8633 93.988 27.8206C93.861 27.8206 93.734 27.8206 93.607 27.8206C93.607 27.7779 93.607 27.7351 93.607 27.6924C93.48 27.6924 93.353 27.6924 93.226 27.6924C93.226 27.6497 93.226 27.6069 93.226 27.5642C93.1413 27.5642 93.0567 27.5642 92.9719 27.5642C92.9719 27.5215 92.9719 27.4787 92.9719 27.436C92.8449 27.436 92.7179 27.436 92.5909 27.436C92.5909 27.3933 92.5909 27.3505 92.5909 27.3078C92.4216 27.2651 92.2522 27.2223 92.0829 27.1796C92.0829 27.1369 92.0829 27.0941 92.0829 27.0514C91.9982 27.0514 91.9136 27.0514 91.8288 27.0514C91.7865 26.9659 91.7441 26.8805 91.7018 26.795C91.5325 26.7523 91.3631 26.7094 91.1938 26.6668C91.1091 26.5385 91.0245 26.4103 90.9398 26.2821C90.855 26.2821 90.7705 26.2821 90.6857 26.2821C90.5587 26.1112 90.4317 25.9402 90.3047 25.7693C89.9661 25.4702 89.6272 25.171 89.2886 24.8719C89.2886 24.7864 89.2886 24.701 89.2886 24.6155C89.2039 24.5728 89.1193 24.53 89.0346 24.4873C89.0346 24.4018 89.0346 24.3164 89.0346 24.2309C88.9499 24.1882 88.8653 24.1453 88.7806 24.1026C88.7383 23.9317 88.6959 23.7607 88.6536 23.5898C88.6113 23.5898 88.5689 23.5898 88.5266 23.5898C88.5266 23.5043 88.5266 23.4189 88.5266 23.3334C88.4843 23.3334 88.4418 23.3334 88.3996 23.3334C88.3996 23.2052 88.3996 23.077 88.3996 22.9488C88.3573 22.9488 88.3148 22.9488 88.2725 22.9488C88.2725 22.8206 88.2725 22.6924 88.2725 22.5642C88.2302 22.5642 88.1878 22.5642 88.1455 22.5642C88.1455 22.436 88.1455 22.3078 88.1455 22.1796C88.1032 22.1796 88.0608 22.1796 88.0185 22.1796C88.0185 22.0087 88.0185 21.8376 88.0185 21.6667C87.9762 21.6667 87.9338 21.6667 87.8915 21.6667C87.8915 21.4959 87.8915 21.3248 87.8915 21.1539C87.8492 21.1539 87.8068 21.1539 87.7645 21.1539C87.7645 20.8975 87.7645 20.6411 87.7645 20.3847C87.7222 20.3847 87.6798 20.3847 87.6375 20.3847C87.6375 18.8892 87.6375 17.3932 87.6375 15.8975C87.6382 14.1174 88 12.8688 88.5266 11.6667C88.5266 11.5385 88.5266 11.4103 88.5266 11.2821C88.5689 11.2821 88.6113 11.2821 88.6536 11.2821C88.6536 11.1966 88.6536 11.1112 88.6536 11.0257C88.7383 10.983 88.8229 10.9402 88.9076 10.8975C88.9499 10.7266 88.9923 10.5556 89.0346 10.3847C89.1616 10.2992 89.2886 10.2138 89.4156 10.1283C89.4156 10.0428 89.4156 9.95739 89.4156 9.87188C89.5849 9.74367 89.7544 9.61547 89.9237 9.48726C90.1777 9.18816 90.4317 8.88893 90.6857 8.58983C90.7705 8.58983 90.855 8.58983 90.9398 8.58983C90.9821 8.50431 91.0245 8.41893 91.0668 8.33342C91.1938 8.29072 91.3208 8.2479 91.4478 8.20521C91.4478 8.16252 91.4478 8.1197 91.4478 8.07701C91.6171 8.03431 91.7866 7.99149 91.9559 7.9488C91.9559 7.90611 91.9559 7.86329 91.9559 7.8206C92.0406 7.8206 92.1252 7.8206 92.2099 7.8206C92.2522 7.73508 92.2946 7.6497 92.3369 7.56419C92.4639 7.56419 92.5909 7.56419 92.7179 7.56419C92.7179 7.52149 92.7179 7.47867 92.7179 7.43598C92.8026 7.43598 92.8872 7.43598 92.9719 7.43598C92.9719 7.39329 92.9719 7.35047 92.9719 7.30778C93.1835 7.26508 93.3954 7.22226 93.607 7.17957C93.607 7.13688 93.607 7.09406 93.607 7.05136C93.734 7.05136 93.861 7.05136 93.988 7.05136C93.988 7.00867 93.988 6.96585 93.988 6.92316C94.1573 6.92316 94.3268 6.92316 94.4961 6.92316C94.4961 6.88047 94.4961 6.83765 94.4961 6.79495C94.6654 6.79495 94.8348 6.79495 95.0041 6.79495C95.0041 6.75226 95.0041 6.70944 95.0041 6.66675C95.2157 6.66675 95.4274 6.66675 95.6392 6.66675C95.6392 6.62406 95.6392 6.58124 95.6392 6.53854C95.9778 6.53854 96.3166 6.53854 96.6553 6.53854C96.6553 6.49585 96.6553 6.45303 96.6553 6.41034C97.4172 6.41034 98.1795 6.41034 98.9415 6.41034C98.9415 6.36765 98.9415 6.32483 98.9415 6.28213C99.4918 6.28213 100.042 6.28213 100.593 6.28213C100.593 6.32483 100.593 6.36765 100.593 6.41034C101.524 6.41034 102.455 6.41034 103.387 6.41034C103.387 6.45303 103.387 6.49585 103.387 6.53854C103.81 6.53854 104.234 6.53854 104.657 6.53854C104.657 6.58124 104.657 6.62406 104.657 6.66675C104.953 6.66675 105.25 6.66675 105.546 6.66675C105.546 6.70944 105.546 6.75226 105.546 6.79495C105.8 6.79495 106.054 6.79495 106.308 6.79495C106.308 6.83765 106.308 6.88047 106.308 6.92316C106.562 6.92316 106.816 6.92316 107.07 6.92316C107.57 7.0747 108.087 7.27226 108.721 7.30778ZM124.598 6.28213C126.249 6.36765 127.9 6.45303 129.551 6.53854C129.551 6.58124 129.551 6.62406 129.551 6.66675C129.763 6.66675 129.974 6.66675 130.186 6.66675C130.186 6.70944 130.186 6.75226 130.186 6.79495C130.398 6.79495 130.609 6.79495 130.821 6.79495C130.821 6.83765 130.821 6.88047 130.821 6.92316C130.948 6.92316 131.075 6.92316 131.202 6.92316C131.202 6.96585 131.202 7.00867 131.202 7.05136C131.329 7.05136 131.456 7.05136 131.583 7.05136C131.583 7.09406 131.583 7.13688 131.583 7.17957C131.837 7.22226 132.091 7.26508 132.345 7.30778C132.345 7.35047 132.345 7.39329 132.345 7.43598C132.599 7.52149 132.853 7.60688 133.107 7.69239C133.107 7.73508 133.107 7.7779 133.107 7.8206C133.277 7.86329 133.446 7.90611 133.615 7.9488C133.615 7.99149 133.615 8.03431 133.615 8.07701C133.742 8.1197 133.869 8.16252 133.996 8.20521C134.039 8.29072 134.081 8.37611 134.124 8.46162C134.208 8.46162 134.293 8.46162 134.378 8.46162C134.505 8.63252 134.632 8.80354 134.759 8.97444C134.843 8.97444 134.928 8.97444 135.013 8.97444C135.14 9.14534 135.267 9.31637 135.394 9.48726C135.436 9.48726 135.478 9.48726 135.521 9.48726C135.521 9.57278 135.521 9.65816 135.521 9.74367C135.69 9.87188 135.859 10.0001 136.029 10.1283C136.029 10.2138 136.029 10.2992 136.029 10.3847C136.113 10.4274 136.198 10.4702 136.283 10.5129C136.325 10.6838 136.367 10.8548 136.41 11.0257C136.494 11.0684 136.579 11.1112 136.664 11.1539C136.664 11.2821 136.664 11.4103 136.664 11.5385C136.706 11.5385 136.748 11.5385 136.791 11.5385C136.833 11.7094 136.875 11.8805 136.918 12.0514C136.96 12.0514 137.002 12.0514 137.045 12.0514C137.214 12.7778 137.384 13.5044 137.553 14.2309C137.553 14.5726 137.553 14.9147 137.553 15.2565C137.595 15.2565 137.638 15.2565 137.68 15.2565C137.68 15.6838 137.68 16.1112 137.68 16.5385C137.68 17.5664 137.782 18.9288 137.553 19.7437C137.553 20.0855 137.553 20.4275 137.553 20.7693C137.511 20.7693 137.468 20.7693 137.426 20.7693C137.426 20.983 137.426 21.1966 137.426 21.4103C137.383 21.4103 137.341 21.4103 137.299 21.4103C137.299 21.5812 137.299 21.7523 137.299 21.9232C137.256 21.9232 137.214 21.9232 137.172 21.9232C137.172 22.0941 137.172 22.2651 137.172 22.436C137.129 22.436 137.087 22.436 137.045 22.436C137.045 22.5642 137.045 22.6924 137.045 22.8206C137.002 22.8206 136.96 22.8206 136.918 22.8206C136.918 22.9061 136.918 22.9915 136.918 23.077C136.875 23.077 136.833 23.077 136.791 23.077C136.791 23.2052 136.791 23.3334 136.791 23.4616C136.748 23.4616 136.706 23.4616 136.664 23.4616C136.664 23.5471 136.664 23.6325 136.664 23.718C136.621 23.718 136.579 23.718 136.537 23.718C136.537 23.8035 136.537 23.8889 136.537 23.9744C136.452 24.0171 136.367 24.06 136.283 24.1026C136.283 24.1882 136.283 24.2735 136.283 24.3591C136.198 24.4018 136.113 24.4446 136.029 24.4873C136.029 24.5728 136.029 24.6582 136.029 24.7437C135.902 24.8292 135.775 24.9146 135.648 25.0001C135.648 25.0856 135.648 25.171 135.648 25.2565C135.394 25.4701 135.14 25.6839 134.886 25.8975C134.843 25.983 134.801 26.0684 134.759 26.1539C134.674 26.1539 134.589 26.1539 134.505 26.1539C134.42 26.2821 134.335 26.4103 134.251 26.5385C134.166 26.5385 134.081 26.5385 133.996 26.5385C133.954 26.6241 133.912 26.7094 133.869 26.795C133.7 26.8376 133.531 26.8805 133.361 26.9232C133.361 26.9659 133.361 27.0087 133.361 27.0514C133.277 27.0514 133.192 27.0514 133.107 27.0514C133.107 27.0941 133.107 27.1369 133.107 27.1796C132.853 27.2651 132.599 27.3505 132.345 27.436C132.345 27.4787 132.345 27.5215 132.345 27.5642C132.218 27.5642 132.091 27.5642 131.964 27.5642C131.964 27.6069 131.964 27.6497 131.964 27.6924C131.88 27.6924 131.795 27.6924 131.71 27.6924C131.71 27.7351 131.71 27.7779 131.71 27.8206C131.583 27.8206 131.456 27.8206 131.329 27.8206C131.329 27.8633 131.329 27.9061 131.329 27.9488C131.16 27.9488 130.991 27.9488 130.821 27.9488C130.821 27.9915 130.821 28.0343 130.821 28.077C130.652 28.077 130.482 28.077 130.313 28.077C129.401 28.3743 127.891 28.5626 126.757 28.5898C121.324 28.7198 117.276 27.8905 115.072 24.7437C114.945 24.6582 114.818 24.5728 114.691 24.4873C114.649 24.3164 114.606 24.1453 114.564 23.9744C114.479 23.9317 114.395 23.8889 114.31 23.8462C114.31 23.7607 114.31 23.6753 114.31 23.5898C114.267 23.5898 114.225 23.5898 114.183 23.5898C114.183 23.5043 114.183 23.4189 114.183 23.3334C114.14 23.3334 114.098 23.3334 114.056 23.3334C114.013 23.077 113.971 22.8206 113.929 22.5642C113.251 20.8111 113.293 18.8882 113.294 16.4103C113.294 14.7084 113.461 13.4882 113.929 12.3078C113.929 12.1796 113.929 12.0514 113.929 11.9232C115.221 8.94867 117.422 7.67034 120.66 6.66675C121.507 6.58124 122.354 6.49585 123.201 6.41034C123.652 6.40867 124.348 6.49944 124.598 6.28213ZM123.963 12.3078C123.663 12.5607 122.857 12.4116 122.438 12.5642C122.438 12.6069 122.438 12.6497 122.438 12.6924C122.311 12.6924 122.184 12.6924 122.057 12.6924C122.057 12.7351 122.057 12.7779 122.057 12.8206C121.973 12.8206 121.888 12.8206 121.803 12.8206C121.803 12.8633 121.803 12.9061 121.803 12.9488C121.719 12.9488 121.634 12.9488 121.549 12.9488C121.549 12.9915 121.549 13.0343 121.549 13.077C121.465 13.077 121.38 13.077 121.295 13.077C121.253 13.1625 121.211 13.2479 121.168 13.3334C121.084 13.3334 120.999 13.3334 120.914 13.3334C120.787 13.5043 120.66 13.6753 120.533 13.8462C120.491 13.8462 120.449 13.8462 120.406 13.8462C120.406 13.9318 120.406 14.0171 120.406 14.1026C120.322 14.1453 120.237 14.1882 120.152 14.2309C120.152 14.3164 120.152 14.4018 120.152 14.4873C120.11 14.4873 120.068 14.4873 120.025 14.4873C120.025 14.6155 120.025 14.7437 120.025 14.8719C119.983 14.8719 119.941 14.8719 119.898 14.8719C119.856 15.641 119.814 16.4105 119.771 17.1796C119.771 18.5674 119.729 20.0707 120.279 20.8975C120.406 20.983 120.533 21.0684 120.66 21.1539C121.723 22.2424 123.086 22.5639 125.233 22.5642C125.868 22.5642 126.503 22.5642 127.138 22.5642C127.138 22.5215 127.138 22.4787 127.138 22.436C127.434 22.436 127.731 22.436 128.027 22.436C128.027 22.3933 128.027 22.3505 128.027 22.3078C128.196 22.3078 128.366 22.3078 128.535 22.3078C128.535 22.2651 128.535 22.2223 128.535 22.1796C128.662 22.1796 128.789 22.1796 128.916 22.1796C128.916 22.1369 128.916 22.0941 128.916 22.0514C129.085 22.0087 129.255 21.9659 129.424 21.9232C129.424 21.8805 129.424 21.8376 129.424 21.795C129.509 21.795 129.593 21.795 129.678 21.795C129.72 21.7094 129.763 21.6241 129.805 21.5385C129.89 21.5385 129.974 21.5385 130.059 21.5385C130.323 21.3483 130.961 20.2337 131.075 19.8719C131.075 19.4019 131.075 18.9316 131.075 18.4616C131.118 18.4616 131.16 18.4616 131.202 18.4616C131.202 17.7779 131.202 17.0941 131.202 16.4103C131.16 16.4103 131.118 16.4103 131.075 16.4103C130.899 15.7833 131.169 15.1238 130.948 14.6155C130.906 14.6155 130.864 14.6155 130.821 14.6155C130.779 14.4446 130.737 14.2735 130.694 14.1026C130.609 14.06 130.525 14.0171 130.44 13.9744C130.44 13.8889 130.44 13.8035 130.44 13.718C130.355 13.6753 130.271 13.6325 130.186 13.5898C130.186 13.5471 130.186 13.5043 130.186 13.4616C130.101 13.4616 130.017 13.4616 129.932 13.4616C129.89 13.3761 129.847 13.2907 129.805 13.2052C129.678 13.1625 129.551 13.1197 129.424 13.077C129.424 13.0343 129.424 12.9915 129.424 12.9488C128.162 12.2684 125.928 12.2821 123.963 12.3078ZM86.4944 33.3334C86.96 33.3334 87.4259 33.3334 87.8915 33.3334C87.8915 36.2819 87.8915 39.2311 87.8915 42.1796C87.4259 42.1796 86.96 42.1796 86.4944 42.1796C86.4944 39.2311 86.4944 36.2819 86.4944 33.3334ZM100.085 33.3334C100.55 33.3334 101.016 33.3334 101.482 33.3334C101.482 34.5298 101.482 35.7268 101.482 36.9232C101.524 36.9232 101.566 36.9232 101.609 36.9232C101.986 36.2318 102.53 36.0038 103.641 36.0257C103.789 36.2002 103.873 36.2216 104.149 36.2821C104.278 36.5233 104.561 36.8089 104.657 37.0514C105.02 37.9723 104.785 40.9073 104.784 42.1796C104.318 42.1796 103.852 42.1796 103.387 42.1796C103.387 40.855 103.387 39.5298 103.387 38.2052C103.345 38.2052 103.302 38.2052 103.26 38.2052C103.218 37.9488 103.175 37.6924 103.133 37.436C102.739 37.2253 102.905 37.1926 102.244 37.1796C102.127 37.3274 101.92 37.3539 101.863 37.436C101.278 38.2674 101.475 40.7506 101.482 42.1796C101.016 42.1796 100.55 42.1796 100.085 42.1796C100.085 39.2311 100.085 36.2819 100.085 33.3334ZM130.186 33.3334C130.694 33.3334 131.202 33.3334 131.71 33.3334C131.71 36.2819 131.71 39.2311 131.71 42.1796C131.202 42.1796 130.694 42.1796 130.186 42.1796C130.186 39.2311 130.186 36.2819 130.186 33.3334ZM145.173 33.3334C145.682 33.3334 146.19 33.3334 146.698 33.3334C146.698 34.5298 146.698 35.7268 146.698 36.9232C146.74 36.9232 146.782 36.9232 146.825 36.9232C146.945 36.4062 147.971 35.6811 148.857 36.0257C148.857 36.0684 148.857 36.1112 148.857 36.1539C148.941 36.1539 149.026 36.1539 149.111 36.1539C149.111 36.1966 149.111 36.2394 149.111 36.2821C149.238 36.3248 149.365 36.3677 149.492 36.4103C149.534 36.5385 149.577 36.6668 149.619 36.795C149.661 36.795 149.704 36.795 149.746 36.795C149.746 36.9232 149.746 37.0514 149.746 37.1796C149.788 37.1796 149.831 37.1796 149.873 37.1796C149.873 37.3505 149.873 37.5215 149.873 37.6924C149.915 37.6924 149.958 37.6924 150 37.6924C150 39.1879 150 40.6839 150 42.1796C149.534 42.1796 149.068 42.1796 148.603 42.1796C148.619 40.5048 148.596 38.7738 148.349 37.436C148.222 37.3933 148.095 37.3505 147.968 37.3078C147.968 37.2651 147.968 37.2223 147.968 37.1796C147.798 37.1796 147.629 37.1796 147.46 37.1796C147.327 37.3465 147.2 37.3705 147.079 37.5642C146.48 38.1711 146.687 40.9137 146.698 42.1796C146.19 42.1796 145.682 42.1796 145.173 42.1796C145.173 39.2311 145.173 36.2819 145.173 33.3334ZM43.8187 33.8462C44.3267 33.8462 44.8348 33.8462 45.3428 33.8462C45.3428 34.2735 45.3428 34.701 45.3428 35.1283C44.8348 35.1283 44.3267 35.1283 43.8187 35.1283C43.8187 34.701 43.8187 34.2735 43.8187 33.8462ZM61.3462 33.8462C61.8542 33.8462 62.3623 33.8462 62.8703 33.8462C62.8703 34.2735 62.8703 34.701 62.8703 35.1283C62.3623 35.1283 61.8542 35.1283 61.3462 35.1283C61.3462 34.701 61.3462 34.2735 61.3462 33.8462ZM32.3877 42.1796C32.3877 39.4875 32.3877 36.7947 32.3877 34.1026C33.0266 33.863 34.2061 33.968 35.0549 33.9744C35.3123 34.195 35.8527 34.093 36.198 34.2309C36.198 34.2735 36.198 34.3164 36.198 34.3591C36.325 34.3591 36.452 34.3591 36.5791 34.3591C36.5791 34.4018 36.5791 34.4446 36.5791 34.4873C36.7484 34.53 36.9178 34.5728 37.0871 34.6155C37.1294 34.701 37.1718 34.7864 37.2141 34.8719C37.4681 35.0855 37.7222 35.2993 37.9762 35.5129C38.1676 35.8025 38.4628 36.8603 38.4842 37.3078C38.6316 40.3784 37.665 41.5153 35.436 42.1796C34.42 42.1796 33.4037 42.1796 32.3877 42.1796ZM70.11 34.3591C70.11 34.9573 70.11 35.5557 70.11 36.1539C70.5333 36.1539 70.9567 36.1539 71.3801 36.1539C71.3801 36.4957 71.3801 36.8378 71.3801 37.1796C70.999 37.1796 70.618 37.1796 70.237 37.1796C69.9534 37.9521 70.1035 39.3894 70.11 40.3847C70.1523 40.3847 70.1947 40.3847 70.237 40.3847C70.237 40.5556 70.237 40.7266 70.237 40.8975C70.5752 41.0785 70.773 41.1578 71.3801 41.1539C71.3782 41.6133 71.4441 41.848 71.5071 42.1796C70.4604 42.3884 69.858 42.4402 69.2209 41.795C69.1362 41.7523 69.0516 41.7094 68.9669 41.6668C68.5043 40.9485 68.6897 38.3746 68.7128 37.1796C68.4165 37.1796 68.1201 37.1796 67.8238 37.1796C67.8238 36.8378 67.8238 36.4957 67.8238 36.1539C68.1201 36.1539 68.4165 36.1539 68.7128 36.1539C68.7128 35.7266 68.7128 35.2992 68.7128 34.8719C68.8399 34.8292 68.9669 34.7864 69.0939 34.7437C69.2749 34.5593 69.803 34.4173 70.11 34.3591ZM138.95 34.3591C138.95 34.9573 138.95 35.5557 138.95 36.1539C139.373 36.1539 139.797 36.1539 140.22 36.1539C140.22 36.4957 140.22 36.8378 140.22 37.1796C139.839 37.1796 139.458 37.1796 139.077 37.1796C138.77 38.0165 138.943 39.5762 138.95 40.6411C139.485 41.0994 139.124 41.1697 140.22 41.1539C140.22 41.4957 140.22 41.8378 140.22 42.1796C139.544 42.3088 138.994 42.2487 138.315 42.1796C138.047 41.728 137.723 41.7527 137.68 41.0257C137.489 40.8098 137.553 40.2794 137.553 39.8719C137.553 38.9746 137.553 38.0769 137.553 37.1796C137.214 37.1796 136.875 37.1796 136.537 37.1796C136.537 36.8805 136.537 36.5812 136.537 36.2821C136.831 36.17 137.096 36.1518 137.553 36.1539C137.553 35.6839 137.553 35.2137 137.553 34.7437C138.018 34.6155 138.484 34.4873 138.95 34.3591ZM33.9118 41.0257C34.4622 40.983 35.0126 40.9402 35.563 40.8975C35.563 40.8548 35.563 40.812 35.563 40.7693C35.6477 40.7693 35.7323 40.7693 35.817 40.7693C35.817 40.7266 35.817 40.6838 35.817 40.6411C36.0122 40.4929 36.0395 40.4659 36.325 40.3847C36.4279 39.9882 36.7128 39.7187 36.8331 39.3591C36.8331 39.1453 36.8331 38.9316 36.8331 38.718C36.8754 38.718 36.9178 38.718 36.9601 38.718C37.2319 37.7615 36.7118 36.8225 36.5791 36.1539C36.3675 35.983 36.1557 35.812 35.944 35.6411C35.944 35.5984 35.944 35.5556 35.944 35.5129C35.5392 35.2406 34.6989 35.1359 34.0388 35.1283C33.8594 35.6211 33.9118 36.4902 33.9118 37.1796C33.9118 38.4615 33.9118 39.7438 33.9118 41.0257ZM54.3606 36.6668C54.3606 36.4959 54.3606 36.3248 54.3606 36.1539C54.8262 36.1539 55.2921 36.1539 55.7577 36.1539C55.8038 38.461 56.0885 42.8693 55.1227 44.1027C54.9957 44.1453 54.8686 44.1882 54.7416 44.2309C54.6993 44.3164 54.6569 44.4018 54.6146 44.4873C54.403 44.53 54.1913 44.5728 53.9796 44.6155C53.9796 44.6582 53.9796 44.701 53.9796 44.7437C53.7678 44.7437 53.5562 44.7437 53.3445 44.7437C53.3445 44.7864 53.3445 44.8292 53.3445 44.8719C52.847 45.0137 51.2474 44.6687 51.0583 44.4873C51.016 44.4873 50.9736 44.4873 50.9313 44.4873C50.9313 44.1455 50.9313 43.8034 50.9313 43.4616C51.076 43.3156 50.9819 43.4611 51.0583 43.2052C51.1006 43.2052 51.143 43.2052 51.1853 43.2052C51.4667 43.5338 53.0849 43.8238 53.5985 43.5898C53.6408 43.5043 53.6832 43.4189 53.7255 43.3334C53.8103 43.3334 53.8949 43.3334 53.9796 43.3334C54.0219 43.2052 54.0643 43.077 54.1066 42.9488C54.1489 42.9488 54.1913 42.9488 54.2336 42.9488C54.2759 42.436 54.3183 41.9232 54.3606 41.4103C54.3183 41.4103 54.2759 41.4103 54.2336 41.4103C53.8571 42.1014 53.3123 42.2069 52.2014 42.1796C51.815 41.7442 51.2404 41.726 51.0583 41.0257C51.016 41.0257 50.9736 41.0257 50.9313 41.0257C50.889 40.7693 50.8466 40.5129 50.8043 40.2565C50.2603 38.6943 50.9994 36.6489 51.9474 36.1539C52.0744 36.1539 52.2014 36.1539 52.3284 36.1539C52.3284 36.1112 52.3284 36.0684 52.3284 36.0257C53.3391 35.7015 53.7816 36.4971 54.3606 36.6668ZM81.0329 42.1796C80.6096 42.1796 80.1861 42.1796 79.7628 42.1796C79.7628 41.9659 79.7628 41.7523 79.7628 41.5385C79.6781 41.5385 79.5935 41.5385 79.5088 41.5385C79.4359 41.7962 79.524 41.6494 79.3818 41.795C78.9633 42.3498 77.5254 42.5214 76.8415 42.0514C76.8415 42.0087 76.8415 41.9659 76.8415 41.9232C76.4269 41.5783 76.5631 41.671 76.3335 41.1539C76.2912 41.1539 76.2488 41.1539 76.2065 41.1539C76.0841 40.8042 76.1907 39.8977 76.3335 39.7437C76.3758 39.6155 76.4182 39.4873 76.4605 39.3591C76.5028 39.3591 76.5452 39.3591 76.5875 39.3591C76.8137 39.03 76.4501 39.1139 76.9686 38.9744C77.4595 38.3938 78.5521 38.4469 79.6358 38.4616C79.6442 37.81 79.5225 37.5397 79.1277 37.3078C78.5537 36.7028 77.4098 37.3466 76.7145 37.436C76.7145 37.0942 76.7145 36.7521 76.7145 36.4103C76.8587 36.3021 76.733 36.4266 76.8415 36.2821C77.4612 36.2182 78.5888 35.7671 79.3818 36.0257C79.6637 36.1176 79.9167 36.3315 80.2708 36.4103C80.4824 36.7521 80.6943 37.0942 80.9059 37.436C80.9059 37.9488 80.9059 38.4616 80.9059 38.9744C80.906 40.1119 81.0087 41.2101 81.0329 42.1796ZM114.945 39.6155C113.76 39.6155 112.574 39.6155 111.389 39.6155C111.425 40.0689 111.56 40.2416 111.643 40.6411C112.054 40.8711 112.144 41.1153 112.786 41.1539C112.786 41.1966 112.786 41.2394 112.786 41.2821C113.003 41.4079 114.237 41.0532 114.564 41.0257C114.564 41.3675 114.564 41.7096 114.564 42.0514C114.42 42.1596 114.545 42.0351 114.437 42.1796C113.886 42.2651 113.336 42.3505 112.786 42.436C112.786 42.3933 112.786 42.3505 112.786 42.3078C112.532 42.3078 112.278 42.3078 112.024 42.3078C111.741 42.213 111.489 42.0028 111.135 41.9232C110.965 41.7094 110.796 41.4959 110.626 41.2821C110.584 41.2821 110.542 41.2821 110.499 41.2821C110.499 41.1966 110.499 41.1112 110.499 41.0257C110.415 40.983 110.33 40.9402 110.245 40.8975C109.889 40.2119 109.93 38.1346 110.245 37.436C110.288 37.436 110.33 37.436 110.372 37.436C110.372 37.3505 110.372 37.2651 110.372 37.1796C110.415 37.1796 110.457 37.1796 110.499 37.1796C110.646 36.9834 110.674 36.9551 110.753 36.6668C111.039 36.5869 111.067 36.5587 111.262 36.4103C111.262 36.3677 111.262 36.3248 111.262 36.2821C111.473 36.2394 111.685 36.1966 111.897 36.1539C111.897 36.1112 111.897 36.0684 111.897 36.0257C112.644 35.785 113.442 36.1833 113.929 36.2821C114.098 36.4957 114.267 36.7094 114.437 36.9232C114.479 36.9232 114.522 36.9232 114.564 36.9232C114.942 37.5084 114.946 38.6428 114.945 39.6155ZM124.725 42.1796C124.344 42.1796 123.963 42.1796 123.582 42.1796C123.582 41.9659 123.582 41.7523 123.582 41.5385C123.249 41.6289 123.174 41.7412 122.947 41.9232C122.947 41.9659 122.947 42.0087 122.947 42.0514C122.777 42.0941 122.608 42.1369 122.438 42.1796C122.438 42.2223 122.438 42.2651 122.438 42.3078C122.015 42.3078 121.592 42.3078 121.168 42.3078C121.168 42.2651 121.168 42.2223 121.168 42.1796C121.041 42.1796 120.914 42.1796 120.787 42.1796C120.533 41.8805 120.279 41.5812 120.025 41.2821C119.983 40.9403 119.941 40.5983 119.898 40.2565C119.974 39.9384 120.2 39.5893 120.279 39.2309C120.433 39.1466 120.459 39.0241 120.533 38.9744C120.618 38.9744 120.703 38.9744 120.787 38.9744C120.83 38.8889 120.872 38.8035 120.914 38.718C121.509 38.4009 122.554 38.4609 123.455 38.4616C123.436 37.9282 123.295 37.8562 123.201 37.436C123.074 37.3933 122.947 37.3505 122.82 37.3078C122.82 37.2651 122.82 37.2223 122.82 37.1796C122.735 37.1796 122.65 37.1796 122.566 37.1796C122.566 37.1369 122.566 37.0941 122.566 37.0514C121.968 36.8427 121.072 37.3734 120.533 37.436C120.533 37.0942 120.533 36.7521 120.533 36.4103C120.576 36.4103 120.618 36.4103 120.66 36.4103C120.66 36.3677 120.66 36.3248 120.66 36.2821C121.275 36.2184 122.374 35.7606 123.201 36.0257C123.201 36.0684 123.201 36.1112 123.201 36.1539C123.412 36.1966 123.624 36.2394 123.836 36.2821C124.104 36.7442 124.533 36.961 124.725 37.5642C124.725 39.1025 124.725 40.6412 124.725 42.1796ZM43.9457 36.1539C44.4113 36.1539 44.8772 36.1539 45.3428 36.1539C45.3428 38.1623 45.3428 40.1712 45.3428 42.1796C44.8772 42.1796 44.4113 42.1796 43.9457 42.1796C43.9457 40.1712 43.9457 38.1623 43.9457 36.1539ZM61.3462 36.1539C61.8542 36.1539 62.3623 36.1539 62.8703 36.1539C62.8703 38.1623 62.8703 40.1712 62.8703 42.1796C62.3623 42.1796 61.8542 42.1796 61.3462 42.1796C61.3462 40.1712 61.3462 38.1623 61.3462 36.1539ZM52.5824 37.3078C52.4977 37.5642 52.4131 37.8206 52.3284 38.077C52.2861 38.077 52.2437 38.077 52.2014 38.077C52.2014 38.3334 52.2014 38.5898 52.2014 38.8462C52.1906 39.1147 52.1688 38.9766 52.0744 39.1026C52.0744 39.1453 52.0744 39.1882 52.0744 39.2309C52.1167 39.2309 52.1591 39.2309 52.2014 39.2309C52.3778 40.1543 52.126 40.801 52.9635 41.0257C52.9635 41.0684 52.9635 41.1112 52.9635 41.1539C53.1328 41.1539 53.3022 41.1539 53.4715 41.1539C53.7239 40.8519 53.984 40.8529 54.1066 40.3847C54.6838 39.823 54.2398 38.185 54.1066 37.5642C53.8678 37.421 53.5085 36.9589 53.0905 37.0514C53.0905 37.0941 53.0905 37.1369 53.0905 37.1796C52.9212 37.2223 52.7518 37.2651 52.5824 37.3078ZM111.389 38.5898C112.15 38.5898 112.913 38.5898 113.675 38.5898C113.64 38.3485 113.549 38.3382 113.548 38.3334C113.548 38.1197 113.548 37.906 113.548 37.6924C113.505 37.6924 113.463 37.6924 113.421 37.6924C113.285 37.0859 112.915 37.0228 112.151 37.0514C111.968 37.3674 111.752 37.4088 111.643 37.8206C111.6 37.8206 111.558 37.8206 111.516 37.8206C111.473 38.077 111.431 38.3334 111.389 38.5898ZM79.2548 41.0257C79.2971 40.8975 79.3395 40.7693 79.3818 40.6411C79.4241 40.6411 79.4665 40.6411 79.5088 40.6411C79.5511 40.2138 79.5935 39.7864 79.6358 39.3591C79.0855 39.4018 78.535 39.4446 77.9846 39.4873C77.7076 39.9555 77.4803 39.9348 77.4766 40.7693C77.5189 40.7693 77.5613 40.7693 77.6036 40.7693C77.6036 40.8548 77.6036 40.9402 77.6036 41.0257C77.6459 41.0257 77.6883 41.0257 77.7306 41.0257C77.7729 41.1112 77.8153 41.1966 77.8576 41.2821C78.1962 41.2821 78.5351 41.2821 78.8737 41.2821C79.0169 41.0618 78.9541 41.1084 79.2548 41.0257ZM123.455 39.3591C122.578 39.3443 122.167 39.4857 121.549 39.6155C121.38 39.9983 121.294 40.2629 121.295 40.8975C121.813 41.2009 121.772 41.2915 122.693 41.2821C122.875 40.9661 123.091 40.9247 123.201 40.5129C123.449 40.2703 123.461 39.866 123.455 39.3591Z" />
<path fill-rule="evenodd" clip-rule="evenodd" d="M18.6706 4.10254C19.1787 4.10254 19.6867 4.10254 20.1948 4.10254C20.1948 4.14523 20.1948 4.18805 20.1948 4.23074C20.3641 4.27344 20.5335 4.31626 20.7028 4.35895C20.7028 4.40164 20.7028 4.44446 20.7028 4.48715C20.9568 4.70074 21.2108 4.91459 21.4649 5.12818C21.4649 5.21369 21.4649 5.29908 21.4649 5.38459C21.6522 5.56523 21.8788 6.55869 21.7189 7.05126C21.6766 7.05126 21.6342 7.05126 21.5919 7.05126C21.5496 7.26497 21.5072 7.47869 21.4649 7.69228C21.2108 7.906 20.9568 8.11972 20.7028 8.33331C20.7028 8.376 20.7028 8.41882 20.7028 8.46151C20.258 8.75421 19.4116 8.721 18.6706 8.71792C18.4438 8.46562 18.4209 8.61049 18.1626 8.46151C18.1626 8.41882 18.1626 8.376 18.1626 8.33331C18.0779 8.33331 17.9933 8.33331 17.9086 8.33331C17.8238 8.2051 17.7392 8.0769 17.6545 7.94869C17.6122 7.94869 17.5698 7.94869 17.5275 7.94869C17.5275 7.86318 17.5275 7.7778 17.5275 7.69228C17.4428 7.64959 17.3582 7.60677 17.2735 7.56408C17.2735 7.43587 17.2735 7.30767 17.2735 7.17946C17.2312 7.17946 17.1888 7.17946 17.1465 7.17946C17.1042 6.83767 17.0618 6.49562 17.0195 6.15382C17.0618 6.15382 17.1042 6.15382 17.1465 6.15382C17.1465 5.94023 17.1465 5.72639 17.1465 5.5128C17.1888 5.5128 17.2312 5.5128 17.2735 5.5128C17.3479 5.20536 17.6954 4.63972 17.9086 4.48715C17.9933 4.48715 18.0779 4.48715 18.1626 4.48715C18.2049 4.40164 18.2473 4.31626 18.2896 4.23074C18.4166 4.23074 18.5436 4.23074 18.6706 4.23074C18.6706 4.18805 18.6706 4.14523 18.6706 4.10254ZM10.5419 4.99997C10.9345 4.89485 11.2017 4.59805 11.558 4.48715C12.1194 4.31241 12.5575 4.66241 12.9551 4.74356C13.0821 4.91446 13.2091 5.08549 13.3362 5.25639C13.3785 5.25639 13.4209 5.25639 13.4632 5.25639C13.6102 5.47151 13.4606 5.55023 13.7172 5.76921C13.7524 6.28805 13.9114 6.71305 13.5902 7.05126C13.4563 7.70818 13.0434 7.79356 12.7011 8.2051C12.1393 8.24818 11.5586 8.44895 11.177 8.0769C10.7671 7.98074 10.3878 7.58972 10.2879 7.17946C10.0346 6.9369 10.2843 7.11344 10.1609 6.79485C9.84031 5.96767 10.3619 5.64664 10.5419 4.99997ZM5.7155 4.99997C6.09653 5.04267 6.47756 5.08549 6.85859 5.12818C6.98561 5.29908 7.11262 5.4701 7.23963 5.641C7.48819 5.88356 7.49962 6.28792 7.49365 6.79485C7.22362 7.036 7.18882 7.36395 6.85859 7.56408C6.61867 7.82049 6.79344 7.56767 6.47756 7.69228C5.87299 7.93074 5.7489 7.69485 5.20745 7.56408C4.91063 7.01754 4.70716 6.93395 4.69941 6.02562C4.7417 6.02562 4.78412 6.02562 4.82642 6.02562C4.82642 5.89741 4.82642 5.76921 4.82642 5.641C4.91114 5.59831 4.99572 5.55549 5.08044 5.5128C5.08044 5.4701 5.08044 5.42728 5.08044 5.38459C5.12274 5.38459 5.16516 5.38459 5.20745 5.38459C5.24975 5.29908 5.29217 5.21369 5.33446 5.12818C5.46147 5.12818 5.58848 5.12818 5.7155 5.12818C5.7155 5.08549 5.7155 5.04267 5.7155 4.99997ZM0.508044 5.5128C0.804361 5.5128 1.1008 5.5128 1.39712 5.5128C1.67413 5.981 1.90148 5.96036 1.90517 6.79485C1.44132 7.07446 1.46177 7.30395 0.635055 7.30767C0.635055 7.26498 0.635055 7.22215 0.635055 7.17946C0.550339 7.17946 0.465749 7.17946 0.381033 7.17946C0.338738 7.09395 0.296317 7.00856 0.254022 6.92305C0.211727 6.92305 0.169306 6.92305 0.127011 6.92305C-0.171973 6.296 0.367824 5.75395 0.508044 5.5128ZM24.2591 9.35895C24.5554 9.35895 24.8519 9.35895 25.1482 9.35895C25.43 9.45215 25.6843 9.66177 26.0373 9.74357C26.2066 9.95728 26.376 10.171 26.5453 10.3846C26.5876 10.3846 26.63 10.3846 26.6723 10.3846C26.8177 10.6052 27.2116 11.812 27.0533 12.3077C26.9625 12.592 26.7516 12.8483 26.6723 13.2051C26.503 13.3333 26.3336 13.4615 26.1643 13.5897C26.1643 13.6324 26.1643 13.6752 26.1643 13.7179C25.6293 14.0936 24.9372 14.1063 24.0051 14.1025C23.7798 13.8486 23.7551 13.995 23.497 13.8461C23.497 13.8034 23.497 13.7606 23.497 13.7179C23.4123 13.7179 23.3277 13.7179 23.243 13.7179C23.1583 13.5897 23.0737 13.4615 22.989 13.3333C22.9467 13.3333 22.9043 13.3333 22.862 13.3333C22.862 13.2478 22.862 13.1624 22.862 13.0769C22.7773 13.0342 22.6927 12.9914 22.608 12.9487C22.3533 12.5292 22.3478 11.8378 22.3539 11.1538C22.3962 11.1538 22.4387 11.1538 22.4809 11.1538C22.4809 11.0256 22.4809 10.8974 22.4809 10.7692C22.6927 10.4701 22.9044 10.1709 23.116 9.87177C23.2007 9.87177 23.2853 9.87177 23.37 9.87177C23.4123 9.78626 23.4547 9.70087 23.497 9.61536C23.7511 9.57267 24.0051 9.52985 24.2591 9.48715C24.2591 9.44446 24.2591 9.40164 24.2591 9.35895ZM16.6384 9.87177C17.3902 9.8601 17.7517 10.0146 18.2896 10.1282C18.4166 10.2991 18.5436 10.4701 18.6706 10.641C18.7129 10.641 18.7553 10.641 18.7976 10.641C18.9335 10.85 19.231 11.9581 19.0517 12.4359C19.0094 12.4359 18.9669 12.4359 18.9246 12.4359C18.8823 12.6068 18.8399 12.7778 18.7976 12.9487C18.7553 12.9487 18.7129 12.9487 18.6706 12.9487C18.5859 13.0769 18.5013 13.2051 18.4166 13.3333C17.9967 13.6168 16.9045 13.8459 16.5114 13.4615C16.1406 13.371 16.215 13.2856 16.0034 13.0769C15.3925 12.4745 15.3354 12.4013 15.3683 11.1538C15.5973 10.9556 15.6639 10.5991 15.8764 10.3846C16.0889 10.1701 16.4416 10.1025 16.6384 9.87177ZM10.7959 10.3846C11.3451 10.377 11.8002 10.4374 12.1931 10.5128C12.5103 11.0661 12.8066 11.1241 12.8281 12.0513C12.7858 12.0513 12.7434 12.0513 12.7011 12.0513C12.6588 12.2648 12.6164 12.4787 12.5741 12.6923C12.3462 13.0229 11.6345 13.1993 11.05 13.2051C10.7096 12.8234 10.3252 12.9375 10.1609 12.3077C9.97227 12.1034 10.0222 11.5523 10.0339 11.1538C10.3443 10.9557 10.1124 11.0011 10.2879 10.7692C10.3901 10.6342 10.6697 10.5437 10.7959 10.3846ZM6.09653 10.7692C6.30813 10.8119 6.51998 10.8547 6.73158 10.8974C6.97227 11.3148 7.20546 11.3632 7.23963 12.0513C6.7119 12.5086 7.05114 12.6961 5.96952 12.6923C5.57121 12.217 5.34577 12.3575 5.33446 11.4102C5.37676 11.4102 5.41918 11.4102 5.46147 11.4102C5.46147 11.3247 5.46147 11.2393 5.46147 11.1538C5.54619 11.1111 5.63078 11.0683 5.7155 11.0256C5.7155 10.9829 5.7155 10.9401 5.7155 10.8974C5.84251 10.8974 5.96952 10.8974 6.09653 10.8974C6.09653 10.8547 6.09653 10.8119 6.09653 10.7692ZM29.4666 14.7436C29.8052 14.7436 30.144 14.7436 30.4826 14.7436C30.7645 14.8368 31.0186 15.0465 31.3717 15.1282C31.6832 15.6383 32.7306 16.4605 32.3878 17.5641C32.3455 17.5641 32.3031 17.5641 32.2608 17.5641C32.2608 17.735 32.2608 17.906 32.2608 18.0769C32.2185 18.0769 32.1761 18.0769 32.1338 18.0769C31.9729 18.7942 30.6587 19.8845 29.4666 19.4872C29.185 19.3933 28.9296 19.1865 28.5775 19.1025C28.4505 18.9316 28.3235 18.7606 28.1964 18.5897C28.1542 18.5897 28.1117 18.5897 28.0694 18.5897C27.7003 18.0316 27.6855 17.3539 27.6884 16.4102C27.9183 16.2089 27.7971 16.1547 27.9424 15.8974C27.9847 15.8974 28.0271 15.8974 28.0694 15.8974C28.0694 15.8119 28.0694 15.7265 28.0694 15.641C28.2387 15.5128 28.4082 15.3846 28.5775 15.2564C28.5775 15.2137 28.5775 15.1709 28.5775 15.1282C28.6622 15.1282 28.7468 15.1282 28.8315 15.1282C28.8315 15.0855 28.8315 15.0427 28.8315 15C29.0432 14.9573 29.255 14.9145 29.4666 14.8718C29.4666 14.8291 29.4666 14.7863 29.4666 14.7436ZM23.8781 18.5897C23.7511 18.6324 23.624 18.6752 23.497 18.7179C23.497 18.7606 23.497 18.8034 23.497 18.8461C23.4123 18.8461 23.3277 18.8461 23.243 18.8461C23.243 18.8888 23.243 18.9316 23.243 18.9743C22.897 19.1015 21.9993 18.9861 21.8459 18.8461C21.1262 18.6698 21.1473 18.2018 20.7028 17.8205C20.6879 17.3801 20.6178 16.6429 20.8298 16.4102C21.0469 15.4501 21.8943 15.2229 23.116 15.2564C23.3124 15.4875 23.6656 15.5547 23.8781 15.7692C24.0906 15.9837 24.1575 16.3397 24.3861 16.5384C24.3438 17.0513 24.3014 17.5641 24.2591 18.0769C24.2168 18.0769 24.1744 18.0769 24.1321 18.0769C23.9893 18.2816 23.9592 18.2966 23.8781 18.5897ZM16.1304 15.7692C16.5246 15.7551 17.0717 15.7089 17.2735 15.8974C17.6656 15.9878 17.8138 16.1473 17.9086 16.5384C18.2693 16.8897 18.0757 17.2606 18.0356 17.8205C17.4532 18.1686 17.4873 18.5437 16.5114 18.5897C16.5114 18.547 16.5114 18.5042 16.5114 18.4615C16.2998 18.4188 16.0881 18.376 15.8764 18.3333C15.7772 18.1497 15.5246 17.8191 15.3683 17.6923C15.3608 17.1379 15.4207 16.6786 15.4953 16.282C15.6772 16.1819 16.0048 15.9269 16.1304 15.7692ZM11.304 16.1538C11.558 16.1965 11.812 16.2393 12.066 16.282C12.5084 17.012 12.7264 16.837 12.3201 17.8205C11.5801 18.1939 11.1633 18.206 10.7959 17.4359C10.7536 17.4359 10.7112 17.4359 10.6689 17.4359C10.6689 17.2222 10.6689 17.0086 10.6689 16.7948C10.774 16.5168 11.1226 16.365 11.304 16.1538ZM34.801 20.1282C35.1396 20.1282 35.4785 20.1282 35.8171 20.1282C36.0989 20.2214 36.3531 20.4311 36.7062 20.5128C36.8787 20.8251 37.192 20.9364 37.3412 21.1538C37.4882 21.3678 37.3391 21.4477 37.5953 21.6666C37.6376 22.0084 37.68 22.3505 37.7223 22.6923C37.5953 23.0769 37.4683 23.4615 37.3412 23.8461C37.1295 24.017 36.9179 24.1881 36.7062 24.3589C36.7062 24.4016 36.7062 24.4445 36.7062 24.4872C36.4876 24.634 35.292 25.0315 34.801 24.8718C34.5193 24.7801 34.2654 24.5672 33.9119 24.4872C33.7849 24.3163 33.6579 24.1452 33.5309 23.9743C33.4886 23.9743 33.4462 23.9743 33.4039 23.9743C33.4039 23.8888 33.4039 23.8034 33.4039 23.7179C33.3192 23.6752 33.2346 23.6324 33.1499 23.5897C32.86 23.0286 33.093 21.9863 33.1499 21.4102C33.4611 21.2114 33.2279 21.2631 33.4039 21.0256C33.5732 20.8974 33.7426 20.7692 33.9119 20.641C33.9119 20.5983 33.9119 20.5555 33.9119 20.5128C33.9967 20.5128 34.0812 20.5128 34.166 20.5128C34.166 20.4701 34.166 20.4273 34.166 20.3846C34.3776 20.3419 34.5894 20.2991 34.801 20.2564C34.801 20.2137 34.801 20.1709 34.801 20.1282ZM27.1804 20.641C28.3468 20.5989 29.2481 20.775 29.4666 21.6666C29.7333 21.9277 29.7305 22.4031 29.7206 22.9487C29.6783 22.9487 29.6359 22.9487 29.5936 22.9487C29.5936 23.0769 29.5936 23.2051 29.5936 23.3333C29.5088 23.376 29.4243 23.4188 29.3395 23.4615C29.1005 23.821 29.1885 23.9747 28.7045 24.1025C28.4395 24.4137 27.8963 24.3747 27.3074 24.3589C27.3074 24.3163 27.3074 24.2734 27.3074 24.2307C27.1804 24.2307 27.0533 24.2307 26.9263 24.2307C26.884 24.1452 26.8416 24.0598 26.7993 23.9743C26.7146 23.9743 26.63 23.9743 26.5453 23.9743C26.4004 23.8596 26.2489 23.3827 26.0373 23.2051C25.9983 22.5575 25.8649 22.102 26.1643 21.5384C26.2066 21.5384 26.249 21.5384 26.2913 21.5384C26.2913 21.4529 26.2913 21.3675 26.2913 21.282C26.5876 21.0684 26.884 20.8546 27.1804 20.641ZM21.8459 21.0256C22.2951 21.0623 22.4662 21.1984 22.862 21.282C22.9612 21.4656 23.2138 21.7963 23.37 21.9231C23.3775 22.4774 23.3177 22.9368 23.243 23.3333C23.0611 23.4334 22.7336 23.6884 22.608 23.8461C22.0588 23.8537 21.6037 23.7933 21.2108 23.7179C21.0211 23.3959 20.4282 22.9038 20.5758 22.3077C20.6181 22.3077 20.6605 22.3077 20.7028 22.3077C20.7451 22.0941 20.7875 21.8802 20.8298 21.6666C20.9568 21.5811 21.0838 21.4957 21.2108 21.4102C21.2108 21.3675 21.2108 21.3247 21.2108 21.282C21.4226 21.2393 21.6343 21.1965 21.8459 21.1538C21.8459 21.1111 21.8459 21.0683 21.8459 21.0256ZM16.6384 21.5384C16.8925 21.5811 17.1465 21.6239 17.4005 21.6666C17.685 22.1604 17.7865 22.0695 17.7815 22.9487C17.6545 23.0342 17.5275 23.1196 17.4005 23.2051C17.4005 23.2478 17.4005 23.2906 17.4005 23.3333C17.3158 23.3333 17.2312 23.3333 17.1465 23.3333C17.1465 23.376 17.1465 23.4188 17.1465 23.4615C16.5376 23.6592 15.7575 22.8316 16.0034 22.1795C16.1083 21.9013 16.4573 21.7498 16.6384 21.5384ZM29.3395 25.5128C30.5798 25.4898 31.0059 25.5346 31.6257 26.1538C31.7105 26.1965 31.795 26.2393 31.8798 26.282C31.8798 26.3675 31.8798 26.4529 31.8798 26.5384C31.9221 26.5384 31.9645 26.5384 32.0068 26.5384C32.1278 26.696 32.1018 26.7859 32.2608 26.9231C32.3031 27.3931 32.3455 27.8633 32.3878 28.3333C32.3455 28.3333 32.3031 28.3333 32.2608 28.3333C32.2608 28.4615 32.2608 28.5897 32.2608 28.7179C32.2185 28.7179 32.1761 28.7179 32.1338 28.7179C32.1338 28.8034 32.1338 28.8888 32.1338 28.9743C31.8798 29.2734 31.6257 29.5727 31.3717 29.8718C31.2024 29.9145 31.033 29.9573 30.8637 30C30.8637 30.0427 30.8637 30.0855 30.8637 30.1282C29.8081 30.5838 28.2699 29.9101 28.0694 29.1025C27.655 28.7424 27.6737 27.9751 27.6884 27.1795C27.9001 26.8377 28.1117 26.4956 28.3235 26.1538C28.6621 25.9402 29.0009 25.7264 29.3395 25.5128ZM23.8781 26.4102C23.9591 26.7033 23.9892 26.7186 24.1321 26.9231C24.1744 26.9231 24.2168 26.9231 24.2591 26.9231C24.2591 27.0513 24.2591 27.1795 24.2591 27.3077C24.3014 27.3077 24.3438 27.3077 24.3861 27.3077C24.5937 27.956 24.2199 28.54 24.1321 28.9743C23.6468 29.2707 23.0592 30.1105 21.9729 29.7436C21.9729 29.7009 21.9729 29.6581 21.9729 29.6154C21.8459 29.6154 21.7189 29.6154 21.5919 29.6154C21.5919 29.5727 21.5919 29.5298 21.5919 29.4872C21.389 29.3431 21.3743 29.3124 21.0838 29.2307C21.0415 29.1025 20.9991 28.9743 20.9568 28.8461C20.9145 28.8461 20.8721 28.8461 20.8298 28.8461C20.8298 28.7606 20.8298 28.6752 20.8298 28.5897C20.7875 28.5897 20.7451 28.5897 20.7028 28.5897C20.5768 28.2405 20.6911 27.3343 20.8298 27.1795C21.0044 26.4531 21.4682 26.4743 21.8459 26.0256C22.3115 26.0256 22.7774 26.0256 23.243 26.0256C23.243 26.0683 23.243 26.1111 23.243 26.1538C23.3277 26.1538 23.4123 26.1538 23.497 26.1538C23.497 26.1965 23.497 26.2393 23.497 26.282C23.624 26.3247 23.7511 26.3675 23.8781 26.4102ZM17.7815 26.7948C17.7815 26.8804 17.7815 26.9657 17.7815 27.0513C17.8663 27.094 17.9508 27.1368 18.0356 27.1795C18.0356 27.3504 18.0356 27.5214 18.0356 27.6923C18.0779 27.6923 18.1203 27.6923 18.1626 27.6923C18.2496 28.0765 17.9752 28.386 17.9086 28.7179C17.7267 28.8181 17.3991 29.0731 17.2735 29.2307C16.7243 29.2383 16.2692 29.1779 15.8764 29.1025C15.7772 28.9189 15.5246 28.5883 15.3683 28.4615C15.3608 27.9072 15.4207 27.4478 15.4953 27.0513C16.0224 26.7455 16.1575 26.4522 17.0195 26.4102C17.0195 26.4529 17.0195 26.4957 17.0195 26.5384C17.1465 26.5384 17.2735 26.5384 17.4005 26.5384C17.4005 26.5811 17.4005 26.624 17.4005 26.6666C17.5275 26.7093 17.6545 26.7522 17.7815 26.7948ZM11.304 26.9231C11.8627 26.9143 12.1088 26.9746 12.3201 27.3077C12.9293 27.8556 12.0921 29.1386 11.304 28.8461C11.304 28.8034 11.304 28.7606 11.304 28.7179C11.2193 28.7179 11.1347 28.7179 11.05 28.7179C10.9044 28.6193 10.5175 27.9583 10.6689 27.5641C10.7112 27.5641 10.7536 27.5641 10.7959 27.5641C10.7959 27.4786 10.7959 27.3932 10.7959 27.3077C10.8382 27.3077 10.8807 27.3077 10.9229 27.3077C10.9652 27.2222 11.0077 27.1368 11.05 27.0513C11.1347 27.0513 11.2193 27.0513 11.304 27.0513C11.304 27.0086 11.304 26.9657 11.304 26.9231ZM22.989 35C22.9092 34.7119 22.882 34.6833 22.735 34.4872C22.6927 34.4872 22.6503 34.4872 22.608 34.4872C22.5657 34.2736 22.5232 34.0597 22.4809 33.8461C22.4387 33.8461 22.3962 33.8461 22.3539 33.8461C22.0871 32.9982 22.6163 32.3348 22.735 31.7948C22.9043 31.6666 23.0737 31.5384 23.243 31.4102C23.243 31.3675 23.243 31.3247 23.243 31.282C23.3277 31.282 23.4123 31.282 23.497 31.282C23.497 31.2393 23.497 31.1965 23.497 31.1538C23.7509 31.0069 23.8073 31.1316 24.0051 30.8974C25.3034 30.8532 26.4311 31.0737 26.6723 32.0513C27.069 32.3868 27.1981 33.4831 26.9263 34.1025C26.5158 35.0381 25.6513 35.6745 24.2591 35.641C24.2591 35.5983 24.2591 35.5555 24.2591 35.5128C24.1321 35.5128 24.0051 35.5128 23.8781 35.5128C23.5707 35.362 23.3817 35.0997 22.989 35ZM17.0195 31.282C17.5994 31.326 17.93 31.5547 18.4166 31.6666C18.5013 31.7948 18.5859 31.9231 18.6706 32.0513C18.7129 32.0513 18.7553 32.0513 18.7976 32.0513C19.079 32.4857 19.0557 33.1211 19.0517 33.8461C18.6544 34.2063 18.6579 34.707 18.0356 34.8718C17.7597 35.1584 17.213 35.1404 16.6384 35.1282C16.4421 34.897 16.0889 34.8299 15.8764 34.6154C15.6639 34.4009 15.597 34.0449 15.3683 33.8461C15.3525 33.0111 15.4435 32.1397 15.8764 31.7948C15.9611 31.7948 16.0457 31.7948 16.1304 31.7948C16.1304 31.7522 16.1304 31.7093 16.1304 31.6666C16.2848 31.5438 16.3754 31.5706 16.5114 31.4102C16.6807 31.4102 16.8502 31.4102 17.0195 31.4102C17.0195 31.3675 17.0195 31.3247 17.0195 31.282ZM11.05 31.7948C11.8296 31.77 12.4252 31.959 12.5741 32.5641C12.8031 32.7873 12.8275 33.1274 12.8281 33.5897C12.45 33.9333 12.563 34.3213 11.939 34.4872C11.5351 34.8756 10.7675 34.4457 10.4149 34.359C10.3726 34.2307 10.3302 34.1025 10.2879 33.9743C10.2456 33.9743 10.2032 33.9743 10.1609 33.9743C10.1609 33.8888 10.1609 33.8034 10.1609 33.7179C10.1186 33.7179 10.0762 33.7179 10.0339 33.7179C9.80512 33.0625 10.2784 32.2359 10.5419 32.0513C10.7522 31.904 10.829 32.0456 11.05 31.7948ZM5.96952 32.3077C6.22354 32.3077 6.47756 32.3077 6.73158 32.3077C6.8163 32.4359 6.90089 32.5641 6.98561 32.6923C7.0279 32.6923 7.07032 32.6923 7.11262 32.6923C7.11262 32.7778 7.11262 32.8632 7.11262 32.9487C7.15491 32.9487 7.19733 32.9487 7.23963 32.9487C7.46647 33.6556 6.62756 34.1883 6.09653 34.2307C5.81113 33.9101 5.60931 34.1077 5.46147 33.5897C4.95241 33.0438 5.75868 32.5532 5.96952 32.3077ZM18.6706 36.282C19.1362 36.282 19.6021 36.282 20.0677 36.282C20.0677 36.3247 20.0677 36.3675 20.0677 36.4102C20.2795 36.4529 20.4911 36.4957 20.7028 36.5384C20.8721 36.752 21.0415 36.9657 21.2108 37.1795C21.2531 37.1795 21.2956 37.1795 21.3379 37.1795C21.4226 37.4359 21.5072 37.6923 21.5919 37.9487C21.6342 37.9487 21.6766 37.9487 21.7189 37.9487C21.9441 38.5864 21.5299 39.724 21.3379 40C21.1685 40.1282 20.9991 40.2564 20.8298 40.3846C20.7875 40.4701 20.7451 40.5555 20.7028 40.641C20.4892 40.7891 20.4158 40.6449 20.1948 40.8974C19.4802 40.9043 18.8491 40.8254 18.2896 40.7692C18.0901 40.452 17.5941 40.2811 17.4005 40C17.2538 39.7869 17.4014 39.7068 17.1465 39.4872C17.1019 38.8965 16.9769 38.7041 17.1465 38.2051C17.1465 38.0342 17.1465 37.8632 17.1465 37.6923C17.1888 37.6923 17.2312 37.6923 17.2735 37.6923C17.3468 37.3916 17.6987 36.8109 17.9086 36.6666C17.9933 36.6666 18.0779 36.6666 18.1626 36.6666C18.1626 36.624 18.1626 36.5811 18.1626 36.5384C18.4212 36.39 18.4466 36.5369 18.6706 36.282ZM11.685 36.6666C12.2649 36.7106 12.5956 36.9393 13.0821 37.0513C13.1669 37.1795 13.2514 37.3077 13.3362 37.4359C13.3785 37.4359 13.4209 37.4359 13.4632 37.4359C13.7445 37.8704 13.7213 38.5057 13.7172 39.2307C13.3199 39.5909 13.3235 40.0916 12.7011 40.2564C12.134 40.8607 11.2387 40.267 10.6689 40.1282C10.5856 39.9752 10.4634 39.9461 10.4149 39.8718C10.4149 39.7863 10.4149 39.7009 10.4149 39.6154C10.3302 39.5727 10.2456 39.5299 10.1609 39.4872C10.1186 39.0172 10.0762 38.5469 10.0339 38.0769C10.2878 37.8561 10.1411 37.7788 10.2879 37.5641C10.5842 37.3077 10.8807 37.0513 11.177 36.7948C11.3463 36.7948 11.5157 36.7948 11.685 36.7948C11.685 36.7522 11.685 36.7093 11.685 36.6666ZM5.7155 37.1795C6.35766 37.1758 6.52748 37.3313 6.98561 37.4359C7.28243 37.9824 7.4859 38.066 7.49365 38.9743C7.45136 38.9743 7.40893 38.9743 7.36664 38.9743C7.36664 39.0598 7.36664 39.1452 7.36664 39.2307C7.32434 39.2307 7.28192 39.2307 7.23963 39.2307C7.23963 39.3163 7.23963 39.4016 7.23963 39.4872C6.99437 39.8315 6.35119 40.0006 5.7155 40C5.7155 39.9573 5.7155 39.9145 5.7155 39.8718C5.58848 39.8718 5.46147 39.8718 5.33446 39.8718C5.20745 39.7009 5.08044 39.5299 4.95343 39.359C4.7003 39.1164 4.94975 39.2931 4.82642 38.9743C4.57887 38.3349 4.79873 37.9293 5.20745 37.5641C5.20745 37.5214 5.20745 37.4786 5.20745 37.4359C5.29217 37.4359 5.37676 37.4359 5.46147 37.4359C5.46147 37.3932 5.46147 37.3504 5.46147 37.3077C5.54619 37.3077 5.63078 37.3077 5.7155 37.3077C5.7155 37.265 5.7155 37.2222 5.7155 37.1795ZM0.635055 37.6923C0.889077 37.6923 1.1431 37.6923 1.39712 37.6923C1.68353 38.1878 1.88815 38.125 1.90517 38.9743C1.34022 39.3147 1.52388 39.4919 0.508044 39.4872C0.423328 39.359 0.338738 39.2307 0.254022 39.1025C0.211727 39.1025 0.169306 39.1025 0.127011 39.1025C0.127011 38.9743 0.127011 38.8461 0.127011 38.7179C0.0847163 38.7179 0.0422947 38.7179 0 38.7179C0.0847163 38.4615 0.169306 38.2051 0.254022 37.9487C0.416723 37.8731 0.525953 37.8223 0.635055 37.6923Z" fill="#E24230"/>
</g>
<defs>
<clipPath id="clip0_36_901">
<rect width="150" height="45"/>
</clipPath>
</defs>
</svg>
