<?xml version="1.0" encoding="utf-8"?><svg viewBox="0 0 264 120" xmlns="http://www.w3.org/2000/svg" xmlns:xlink="http://www.w3.org/1999/xlink"><style>:root>svg{display:none}:root>svg:target{display:block}</style><svg fill="none" viewBox="0 0 6 11" id="arrow-sm" xmlns="http://www.w3.org/2000/svg"><path d="M1.189 10.782l4.659-4.876a.51.51 0 00.117-.188A.666.666 0 006 5.5a.666.666 0 00-.035-.218.51.51 0 00-.117-.188L1.188.204A.64.64 0 00.706 0a.663.663 0 00-.498.218A.713.713 0 000 .726c0 .193.07.362.207.508L4.272 5.5.207 9.766a.698.698 0 00-.193.5c0 .2.069.371.207.516a.649.649 0 00.968 0z" fill="#fff"/></svg><svg fill="none" viewBox="0 0 25 25" id="icon-close" xmlns="http://www.w3.org/2000/svg"><rect y="3.537" width="5" height="30" rx="2.5" transform="rotate(-45 0 3.537)" fill="#fff"/><rect x="3.537" y="24.749" width="5" height="30" rx="2.5" transform="rotate(-135 3.537 24.749)" fill="#fff"/></svg><svg fill="none" viewBox="0 0 38 60" id="icon-mouse" xmlns="http://www.w3.org/2000/svg"><g clip-path="url(#cclip0_104_754)"><path d="M19 55.75c-3.9 0-7.64-1.53-10.397-4.25l-.702.712A15.803 15.803 0 0019 56.75v-1zm0-51.5c3.9 0 7.64 1.53 10.397 4.25l.702-.712A15.803 15.803 0 0019 3.25v1zm1.695 7.193A2.413 2.413 0 0019 10.75c-.634 0-1.244.249-1.695.693a2.363 2.363 0 00-.705 1.682v7.5c0 .632.255 1.237.705 1.682.45.444 1.06.693 1.695.693.634 0 1.244-.249 1.695-.693.45-.445.705-1.05.705-1.682v-7.5c0-.632-.255-1.237-.705-1.682zM5.916 5.848A18.63 18.63 0 0119 .5a18.63 18.63 0 0113.084 5.348A18.126 18.126 0 0137.5 18.75v22.5c0 4.838-1.947 9.48-5.416 12.902A18.63 18.63 0 0119 59.5a18.63 18.63 0 01-13.084-5.348A18.126 18.126 0 01.5 41.25v-22.5c0-4.838 1.947-9.48 5.416-12.902z" stroke="#fff"/></g><defs><clipPath id="cclip0_104_754"><path fill="#fff" d="M0 0h38v60H0z"/></clipPath></defs></svg><svg fill="none" viewBox="0 0 25 13" id="icon-up" xmlns="http://www.w3.org/2000/svg"><path d="M24.082 12.226L13.443 1.355a1.103 1.103 0 00-.411-.274A1.369 1.369 0 0012.557 1c-.17 0-.327.027-.475.081a1.101 1.101 0 00-.412.274L1 12.225" stroke="#fff" stroke-linecap="round"/></svg><svg viewBox="0 0 150 45" id="logo" xmlns="http://www.w3.org/2000/svg"><g clip-path="url(#eclip0_36_901)" fill-rule="evenodd" clip-rule="evenodd"><path d="M52.074.128v27.564h-7.366V.256c.581-.215 1.628-.128 2.413-.128h4.953zm3.684 0h28.45c.19.524.127 1.456.127 2.18v4.359c-.836.308-2.368.128-3.43.128h-7.239v20.897H66.3V6.795H55.758V.128zm52.963 7.18v6.154c-.783-.082-1.825-.426-2.54-.641l-2.667-.257v-.128h-1.397v-.128c-.623-.175-3.228-.002-3.684.128h-1.016v.128h-.508v.128l-.762.129v.128l-.508.128v.128h-.254l-.127.257-.635.512-.254.77h-.127l-.127 2.564c0 1.384-.048 2.758.508 3.59l.508.384.254.385h.254l.127.256h.381v.128h.254v.129h.381v.128l1.397.128v.128h1.906c1.663 0 3.387-.002 4.699-.384h.889v-.129h.635v-.128h.635v-.128l1.778-.385v6.154l-.889.128v.129h-.635v.128h-.762v.128h-.762v.128h-.889v.128h-1.143v.129h-1.778v.128c-.648.182-3.455.008-3.938-.128h-1.524v-.129h-.889v-.128h-.635v-.128h-.508v-.128h-.381v-.128h-.381v-.129h-.381v-.128h-.254v-.128h-.381v-.128l-.508-.128v-.129h-.254l-.127-.256-.508-.128-.254-.385h-.254l-.381-.513-1.016-.897v-.256l-.254-.129v-.256l-.254-.128-.127-.513h-.127v-.257H88.4v-.384h-.128v-.385h-.127v-.384h-.126v-.513h-.128v-.513h-.127v-.77h-.126v-4.486c0-1.78.362-3.03.889-4.231v-.385h.127v-.256l.254-.128.127-.513.38-.257v-.256l.509-.385.762-.897h.254l.127-.257.38-.128v-.128l.509-.128V7.82h.254l.127-.257h.38v-.128h.255v-.128l.635-.128V7.05h.381v-.128h.508v-.128h.508v-.128h.635v-.128h1.016V6.41h2.287v-.128h1.651v.128h2.794v.129h1.27v.128h.889v.128h.762v.128h.762c.5.152 1.017.35 1.651.385zm15.877-1.026l4.953.257v.128h.635v.128h.635v.128h.381v.128h.381v.129l.762.128v.128l.762.256v.129l.508.128v.128l.381.128.128.257h.254l.381.512h.254l.381.513h.127v.257l.508.384v.257l.254.128.127.513.254.128v.385h.127l.127.512h.127l.508 2.18v1.026h.127v1.281c0 1.028.102 2.39-.127 3.206v1.025h-.127v.641h-.127v.513h-.127v.513h-.127v.385h-.127v.256h-.127v.385h-.127v.256h-.127v.256l-.254.129v.256l-.254.128v.257l-.381.256v.256l-.762.642-.127.256h-.254l-.254.384h-.255l-.127.257-.508.128v.128h-.254v.129l-.762.256v.128h-.381v.128h-.254v.129h-.381v.128h-.508v.128h-.508c-.912.297-2.422.486-3.556.513-5.433.13-9.481-.7-11.685-3.846l-.381-.257-.127-.513-.254-.128v-.256h-.127v-.257h-.127l-.127-.769c-.678-1.753-.636-3.676-.635-6.154 0-1.702.167-2.922.635-4.102v-.385c1.292-2.974 3.493-4.253 6.731-5.256l2.541-.257c.451-.001 1.147.09 1.397-.128zm-.635 6.026c-.3.253-1.106.104-1.525.256v.128h-.381v.129h-.254v.128h-.254v.128h-.254l-.127.256h-.254l-.381.513h-.127v.257l-.254.128v.256h-.127v.385h-.127l-.127 2.308c0 1.387-.042 2.89.508 3.718l.381.256c1.063 1.088 2.426 1.41 4.573 1.41h1.905v-.128h.889v-.128h.508v-.128h.381v-.129l.508-.128v-.128h.254l.127-.257h.254c.264-.19.902-1.304 1.016-1.666v-1.41h.127V16.41h-.127c-.176-.627.094-1.286-.127-1.794h-.127l-.127-.513-.254-.129v-.256l-.254-.128v-.128h-.254l-.127-.257-.381-.128v-.128c-1.262-.68-3.496-.667-5.461-.641zM86.494 33.333h1.397v8.847h-1.397v-8.847zm13.591 0h1.397v3.59h.127c.377-.691.921-.92 2.032-.897.148.174.232.196.508.256.129.241.412.527.508.77.363.92.128 3.855.127 5.128h-1.397v-3.975h-.127l-.127-.769c-.394-.21-.228-.243-.889-.256-.117.147-.324.174-.381.256-.585.831-.388 3.315-.381 4.744h-1.397v-8.847zm30.101 0h1.524v8.847h-1.524v-8.847zm14.987 0h1.525v3.59h.127c.12-.517 1.146-1.242 2.032-.897v.128h.254v.128l.381.128.127.385h.127v.385h.127v.512H150v4.488h-1.397c.016-1.675-.007-3.406-.254-4.744l-.381-.128v-.128h-.508c-.133.166-.26.19-.381.384-.599.607-.392 3.35-.381 4.616h-1.525v-8.847zm-101.354.513h1.524v1.282h-1.524v-1.282zm17.527 0h1.524v1.282h-1.524v-1.282zM32.388 42.18v-8.077c.639-.24 1.818-.135 2.667-.129.257.221.798.119 1.143.257v.128h.381v.128l.508.128.127.257.762.64c.192.29.487 1.348.508 1.796.148 3.07-.819 4.207-3.048 4.872h-3.048zm37.722-7.82v1.794h1.27v1.026h-1.143c-.284.772-.133 2.21-.127 3.205h.127v.513c.338.18.536.26 1.143.256-.002.46.064.694.127 1.026-1.047.208-1.649.26-2.286-.385l-.254-.128c-.463-.718-.277-3.292-.254-4.487h-.89v-1.026h.89v-1.282l.38-.128c.182-.185.71-.327 1.017-.385zm68.84 0v1.794h1.27v1.026h-1.143c-.307.837-.134 2.396-.127 3.461.535.458.174.529 1.27.513v1.026c-.676.129-1.226.069-1.905 0-.268-.452-.592-.427-.635-1.154-.191-.216-.127-.747-.127-1.154V37.18h-1.016v-.898c.294-.112.559-.13 1.016-.128v-1.41l1.397-.385zM33.912 41.025l1.651-.129v-.128h.254v-.128c.195-.148.222-.175.508-.256.103-.397.388-.666.508-1.026v-.641h.127c.272-.957-.248-1.896-.38-2.564l-.636-.513v-.128c-.405-.272-1.245-.377-1.905-.385-.18.493-.127 1.362-.127 2.052v3.846zm20.449-4.36v-.512h1.397c.046 2.307.33 6.715-.635 7.949l-.381.128-.127.256-.635.128v.129h-.636v.128c-.497.142-2.097-.203-2.286-.385h-.127v-1.025c.145-.146.05 0 .127-.257h.127c.282.329 1.9.619 2.413.385l.127-.257h.255l.127-.384h.127l.127-1.539h-.127c-.377.691-.922.797-2.033.77-.386-.436-.96-.454-1.143-1.154h-.127l-.127-.77c-.544-1.562.195-3.607 1.143-4.102h.381v-.128c1.011-.325 1.454.471 2.033.64zm26.672 5.514h-1.27v-.642h-.254c-.073.258.015.111-.127.257-.419.555-1.857.726-2.54.256v-.128c-.415-.345-.279-.252-.508-.77h-.127c-.123-.349-.016-1.255.127-1.41l.126-.384h.128c.226-.329-.138-.245.38-.385.492-.58 1.584-.527 2.668-.512.008-.652-.114-.922-.508-1.154-.574-.605-1.718.039-2.413.128V36.41c.144-.108.018.017.126-.128.62-.064 1.748-.515 2.54-.256.283.092.536.305.89.384l.635 1.026v1.538c0 1.138.103 2.236.127 3.206zm33.912-2.565h-3.556c.036.454.171.627.254 1.026.411.23.501.474 1.143.513v.128c.217.126 1.451-.229 1.778-.256v1.025c-.144.109-.019-.016-.127.129l-1.651.256v-.128h-.762c-.283-.095-.535-.305-.889-.385l-.509-.64h-.127v-.257a59.886 59.886 0 00-.254-.129c-.356-.685-.315-2.762 0-3.461h.127v-.256h.127c.147-.197.175-.225.254-.513.286-.08.314-.108.509-.257v-.128l.635-.128v-.128c.747-.241 1.545.157 2.032.256l.508.641h.127c.378.585.382 1.72.381 2.692zm9.78 2.565h-1.143v-.642c-.333.09-.408.203-.635.385v.128l-.509.129v.128h-1.27v-.128h-.381l-.762-.898-.127-1.025c.076-.319.302-.668.381-1.026.154-.084.18-.207.254-.257h.254l.127-.256c.595-.317 1.64-.257 2.541-.256-.019-.534-.16-.606-.254-1.026l-.381-.128v-.128h-.254v-.129c-.598-.208-1.494.322-2.033.385V36.41h.127v-.128c.615-.064 1.714-.521 2.541-.256v.128l.635.128c.268.462.697.679.889 1.282v4.616zm-80.78-6.026h1.398v6.026h-1.397v-6.026zm17.401 0h1.524v6.026h-1.524v-6.026zm-8.764 1.154l-.254.769h-.127v.77c-.01.268-.032.13-.127.256v.128h.127c.177.923-.075 1.57.763 1.795v.128h.508c.252-.302.512-.301.635-.77.577-.561.133-2.199 0-2.82-.24-.143-.599-.605-1.017-.513v.129l-.508.128zm58.807 1.282h2.286c-.035-.242-.126-.252-.127-.257v-.64h-.127c-.136-.607-.506-.67-1.27-.642-.183.316-.399.358-.508.77h-.127l-.127.769zm-32.134 2.436l.127-.385h.127l.127-1.282-1.651.128c-.277.468-.505.448-.508 1.282h.127v.257h.127l.127.256h1.016c.143-.22.08-.174.38-.256zm44.2-1.667c-.877-.015-1.288.127-1.906.256-.169.383-.255.648-.254 1.282.518.304.477.395 1.398.385.182-.316.398-.357.508-.77.248-.242.26-.646.254-1.153z"/><path d="M18.67 4.103h1.525v.128l.508.128v.128l.762.641v.257c.187.18.414 1.174.254 1.666h-.127l-.127.641-.762.641v.129c-.445.292-1.291.259-2.032.256-.227-.252-.25-.108-.508-.256v-.129h-.254l-.255-.384h-.127v-.257l-.254-.128V7.18h-.127l-.127-1.025h.128v-.641h.127c.074-.308.421-.873.635-1.026h.254l.127-.256h.38v-.128zM10.543 5c.393-.105.66-.402 1.016-.513.561-.175 1 .175 1.397.257l.381.512h.127c.147.216-.002.294.254.513.035.519.194.944-.127 1.282-.134.657-.547.743-.889 1.154-.562.043-1.142.244-1.524-.128-.41-.096-.79-.487-.89-.898-.252-.242-.003-.066-.126-.384-.32-.827.2-1.148.38-1.795zM5.715 5l1.144.128.38.513c.25.243.26.647.255 1.154-.27.241-.305.569-.635.77-.24.255-.066.003-.381.127-.605.239-.73.003-1.27-.128-.297-.546-.5-.63-.509-1.538h.127V5.64l.254-.128v-.128h.127l.127-.257h.381V5zm-5.207.513h.89c.276.468.503.447.507 1.282-.464.28-.443.509-1.27.513v-.129H.381l-.127-.256H.127c-.299-.627.24-1.17.381-1.41zm23.751 3.846h.89c.281.093.535.303.888.385l.508.64h.127c.146.221.54 1.428.381 1.924-.09.284-.301.54-.38.897l-.509.385v.128c-.535.376-1.227.388-2.159.384-.225-.253-.25-.107-.508-.256v-.128h-.254l-.254-.385h-.127v-.256l-.254-.128c-.255-.42-.26-1.111-.254-1.795h.127v-.385l.635-.897h.254l.127-.257.762-.128V9.36zm-7.62.513c.751-.012 1.113.143 1.65.256l.382.513h.127c.136.209.433 1.317.254 1.795h-.127l-.127.513h-.127l-.254.384c-.42.284-1.513.513-1.906.128-.37-.09-.296-.175-.508-.384-.61-.602-.668-.676-.635-1.923.23-.198.296-.555.508-.77.213-.214.566-.282.762-.512zm-5.843.513a6.746 6.746 0 011.397.128c.317.553.614.611.635 1.538h-.127l-.127.641c-.228.33-.94.507-1.524.513-.34-.382-.725-.268-.89-.897-.188-.205-.138-.756-.126-1.154.31-.198.078-.153.254-.385.102-.135.382-.225.508-.384zm-4.7.384l.636.128c.24.418.473.466.508 1.154-.528.458-.189.645-1.27.641-.399-.475-.624-.335-.636-1.282h.127v-.256l.254-.128v-.129h.382v-.128zm23.37 3.975h1.017c.282.093.536.303.889.384.311.51 1.359 1.332 1.016 2.436h-.127v.513h-.127c-.161.717-1.475 1.807-2.667 1.41-.282-.094-.537-.3-.89-.384l-.38-.513h-.128c-.369-.558-.383-1.236-.38-2.18.23-.201.108-.255.253-.513h.127v-.256l.509-.385v-.128h.253V15l.636-.128v-.128zm-5.588 3.846l-.381.128v.128h-.254v.128c-.346.128-1.244.012-1.397-.128-.72-.176-.699-.644-1.143-1.026-.015-.44-.085-1.177.127-1.41.217-.96 1.064-1.187 2.286-1.154.196.232.55.299.762.513.213.215.28.57.508.77l-.127 1.538h-.127c-.143.205-.173.22-.254.513zm-7.748-2.82c.395-.015.942-.061 1.143.127.393.09.54.25.636.641.36.352.167.723.127 1.282-.583.349-.549.724-1.525.77v-.128l-.635-.129c-.099-.183-.351-.514-.508-.64a6.942 6.942 0 01.127-1.411c.182-.1.51-.355.635-.513zm-4.826.384l.762.128c.442.73.66.555.254 1.538-.74.374-1.157.386-1.524-.384h-.127v-.641c.105-.278.454-.43.635-.641zm23.497 3.974h1.016c.282.093.536.303.89.385.172.312.485.423.634.64.147.215-.002.295.254.514l.127 1.025-.38 1.154-.636.513v.128c-.218.147-1.414.545-1.905.385-.282-.092-.536-.305-.89-.385l-.38-.513h-.127v-.256l-.254-.128c-.29-.561-.057-1.604 0-2.18.311-.199.078-.147.254-.384l.508-.385v-.128h.254v-.128l.635-.129v-.128zm-7.62.513c1.166-.042 2.067.134 2.286 1.026.266.26.264.736.254 1.282h-.127v.384l-.255.129c-.238.359-.15.513-.634.64-.265.312-.809.273-1.398.257v-.128h-.38l-.128-.257h-.254c-.145-.114-.296-.591-.508-.769-.039-.647-.172-1.103.127-1.667h.127v-.256l.89-.641zm-5.335.385c.45.036.62.172 1.016.256.1.184.352.514.508.641a6.934 6.934 0 01-.127 1.41c-.182.1-.51.355-.635.513a6.746 6.746 0 01-1.397-.128c-.19-.322-.783-.814-.635-1.41h.127l.127-.641.38-.257v-.128l.636-.128v-.128zm-5.208.512l.762.129c.285.493.387.402.382 1.282-.128.085-.255.17-.381.256v.128h-.255v.129c-.608.197-1.389-.63-1.143-1.282.105-.279.454-.43.635-.642zm12.701 3.975c1.24-.023 1.667.022 2.287.64.084.044.169.086.254.129v.256h.127c.12.158.095.248.254.385l.127 1.41h-.127v.385h-.127v.256l-.762.898-.508.128v.128c-1.056.456-2.594-.218-2.795-1.026-.414-.36-.395-1.127-.38-1.922l.634-1.026 1.017-.641zm-5.46.897c.08.293.11.309.253.513h.127v.385h.127c.208.648-.166 1.232-.254 1.666-.485.297-1.073 1.136-2.16.77v-.129h-.38v-.128c-.203-.144-.218-.175-.508-.256l-.127-.385h-.127v-.256h-.127c-.126-.35-.012-1.256.127-1.41.174-.727.638-.706 1.016-1.154h1.397v.128h.254v.128l.381.128zm-6.098.385v.256l.255.129v.512h.127c.087.384-.188.694-.254 1.026-.182.1-.51.355-.636.513a6.744 6.744 0 01-1.397-.129c-.099-.183-.351-.514-.508-.64a6.941 6.941 0 01.127-1.41c.527-.306.662-.6 1.525-.642v.128h.38v.129l.382.128zm-6.477.128c.559-.009.805.052 1.016.385.61.548-.228 1.83-1.016 1.538v-.128h-.254c-.146-.099-.533-.76-.381-1.154h.127v-.256h.127l.127-.257h.254v-.128zM22.989 35c-.08-.288-.107-.317-.254-.513h-.127l-.127-.64h-.127c-.267-.849.262-1.512.381-2.052l.508-.385v-.128h.254v-.128c.254-.147.31-.022.508-.257 1.298-.044 2.426.177 2.667 1.154.397.336.526 1.432.254 2.051-.41.936-1.275 1.573-2.667 1.539v-.128h-.38c-.308-.151-.497-.413-.89-.513zm-5.97-3.718c.58.044.911.273 1.398.385l.254.384h.127c.281.435.258 1.07.254 1.795-.398.36-.394.861-1.016 1.026-.276.286-.823.268-1.398.256-.196-.231-.55-.298-.762-.513-.212-.214-.279-.57-.508-.769-.016-.835.075-1.706.508-2.051h.254v-.128c.155-.123.245-.096.381-.257h.509v-.128zm-5.969.513c.78-.025 1.375.164 1.524.77.23.222.254.562.254 1.025-.378.343-.265.731-.889.897-.404.389-1.171-.041-1.524-.128l-.127-.385h-.127v-.256h-.127c-.229-.656.244-1.482.508-1.667.21-.147.287-.005.508-.256zm-5.08.513h.762l.254.384h.127v.257h.127c.226.707-.612 1.24-1.143 1.282-.286-.32-.488-.123-.636-.641-.509-.546.298-1.037.509-1.282zm12.7 3.974h1.398v.128l.635.128.508.642h.127l.254.769h.127c.225.637-.19 1.775-.381 2.051l-.508.385-.127.256c-.214.148-.287.004-.508.256-.715.007-1.346-.072-1.905-.128-.2-.317-.696-.488-.89-.769-.146-.213.001-.293-.253-.513-.045-.59-.17-.783 0-1.282v-.513h.127c.073-.3.425-.881.635-1.025h.254v-.129c.258-.148.284-.001.508-.256zm-6.985.385c.58.044.91.272 1.397.384l.254.385h.127c.282.434.258 1.07.254 1.795-.397.36-.394.86-1.016 1.025-.567.605-1.462.011-2.032-.128-.083-.153-.206-.182-.254-.256v-.257l-.254-.128-.127-1.41c.254-.22.107-.298.254-.513l.889-.77h.508v-.127zm-5.97.512c.643-.003.812.152 1.27.257.297.546.5.63.509 1.538h-.127v.257H7.24v.256c-.246.344-.889.514-1.525.513v-.128h-.38l-.382-.513c-.253-.243-.003-.066-.127-.385-.247-.64-.027-1.045.381-1.41v-.128h.254v-.128h.254v-.129zm-5.08.513h.762c.287.496.491.433.508 1.282-.565.34-.381.518-1.397.513l-.254-.385H.127v-.384H0l.254-.77c.163-.075.272-.126.381-.256z" fill="#E24230"/></g><defs><clipPath id="eclip0_36_901"><path d="M0 0h150v45H0z"/></clipPath></defs></svg><svg fill="none" viewBox="0 0 14 24" id="nav-left" xmlns="http://www.w3.org/2000/svg"><path d="M11.226 23.525L.355 12.887a1.101 1.101 0 01-.274-.412A1.368 1.368 0 010 12c0-.169.027-.327.081-.475.054-.148.145-.285.274-.412L11.225.444c.302-.295.678-.443 1.13-.443.451 0 .838.158 1.161.475.323.317.484.686.484 1.108 0 .422-.161.792-.484 1.108L4.032 12l9.484 9.309c.301.295.452.66.452 1.091 0 .434-.162.808-.484 1.125a1.562 1.562 0 01-1.13.475c-.43 0-.806-.158-1.128-.475z" fill="#fff"/></svg><svg fill="none" viewBox="0 0 14 24" id="nav-right" xmlns="http://www.w3.org/2000/svg"><path d="M2.774 23.525l10.871-10.638c.13-.127.22-.264.274-.412.054-.148.081-.306.081-.475 0-.169-.027-.327-.081-.475a1.101 1.101 0 00-.274-.412L2.775.444C2.472.148 2.096 0 1.644 0 1.194 0 .806.158.484.475.16.792 0 1.16 0 1.583c0 .422.161.792.484 1.108L9.968 12 .484 21.309A1.47 1.47 0 00.032 22.4c0 .434.162.808.484 1.125.323.317.699.475 1.13.475.43 0 .806-.158 1.128-.475z" fill="#fff"/></svg><svg fill="none" viewBox="0 0 264 55" id="srv-logo-02" xmlns="http://www.w3.org/2000/svg"><path d="M27.036 44.32H9.36V31.638h17.677c3.425 0 6.24 2.86 6.24 6.34 0 3.543-2.815 6.34-6.24 6.34zm0-33.753c3.18 0 5.689 2.61 5.689 5.78 0 3.233-2.57 5.781-5.689 5.781H9.36V10.567h17.677zm15.047 5.78c0-8.453-6.728-15.29-15.047-15.29H0V53.83h26.975c8.625 0 15.537-7.087 15.537-15.851 0-4.351-1.774-8.33-4.588-11.189 2.63-2.735 4.16-6.402 4.16-10.442zm88.999 5.844h-17.616V10.567h17.678c3.18 0 5.688 2.61 5.688 5.78 0 3.233-2.569 5.844-5.75 5.844zm15.048-5.843c0-8.454-6.729-15.291-15.048-15.291h-26.974V53.83h9.358V31.639h17.678c3.425 0 6.239 2.86 6.239 6.34v15.85h9.358V37.98c0-4.351-1.773-8.33-4.587-11.189a15.635 15.635 0 003.976-10.442zm15.047 11.126c0-9.324 7.462-16.907 16.638-16.907h15.597v-9.51h-15.597c-14.314 0-25.935 11.81-25.935 26.355s11.621 26.355 25.935 26.355h15.597V44.32h-15.597c-9.176 0-16.638-7.521-16.638-16.845z" fill="#F00000"/><path d="M223.752 45.376c-9.726 0-17.678-8.018-17.678-17.964 0-9.883 7.891-17.964 17.678-17.964 9.725 0 17.677 8.019 17.677 17.964 0 9.946-7.952 17.964-17.677 17.964zm31.929-23.185c-3.058 0-5.688-1.927-6.789-4.724C244.977 7.273 235.19 0 223.752 0c-11.439 0-21.226 7.21-25.14 17.467-1.04 2.735-3.67 4.724-6.79 4.724h-8.319v10.567h8.319c3.058 0 5.689 1.989 6.79 4.724 3.914 10.194 13.701 17.467 25.14 17.467 11.438 0 21.225-7.273 25.14-17.467a7.23 7.23 0 016.789-4.662H264V22.253h-8.319v-.062z" fill="#F00000"/><path d="M223.752 17.342c-5.505 0-9.971 4.538-9.971 10.132 0 5.595 4.466 10.132 9.971 10.132s9.97-4.538 9.97-10.132c0-5.594-4.465-10.132-9.97-10.132zM84.656 27.474H60.801v-5.78c0-6.714 5.321-12.122 11.927-12.122 6.607 0 11.928 5.408 11.928 12.122v5.78zM72.728 0C60.984 0 51.442 9.697 51.442 21.631V53.83h9.359V36.984h23.855V53.83h9.359V21.63C93.954 9.697 84.473 0 72.728 0z" fill="#F00000"/></svg><svg fill="none" viewBox="0 0 118 120" id="srv-logo-03" xmlns="http://www.w3.org/2000/svg"><g clip-path="url(#iclip0_187_246)"><path d="M76.63 94.898c-1.13-.744-3.21-2.08-4.623-2.977-1.387-.899-4.032-2.619-5.88-3.825-1.824-1.181-3.673-2.387-4.11-2.644-.41-.282-2.414-1.566-4.442-2.875-2.003-1.284-4.93-3.157-6.472-4.158-1.54-.976-2.824-1.9-2.824-2.054 0-.128.539-.59 1.232-1.027.668-.41 3.339-2.156 5.958-3.85 4.674-3.055 7.165-4.697 12.66-8.24 1.515-.975 4.212-2.746 6.035-3.901 2.876-1.9 4.494-2.875 4.725-2.875.052 0 .052 2.361 0 5.262l-.077 5.262h39.06v18.738h-39.06l.026 5.16c.026 2.823 0 5.185-.051 5.236-.052.052-1.028-.487-2.158-1.232z" fill="#E30000"/><path d="M99.382 41.584V18.482H18.746v15.914H.258V0H117.872v64.686h-18.49V41.584z" fill="#E30000"/><path d="M.18 119.694C.077 119.617 0 105.756 0 88.943 0 63.12.051 58.294.36 58.037c.256-.205 2.824-.282 9.296-.23l8.962.076.077 21.768.052 21.741 27.94.026c15.356.026 33.46.026 40.24 0l12.326-.051.18-1.977c.103-1.078.154-4.056.154-6.597l-.025-4.62H118v31.573l-58.833.077c-32.357.025-58.91-.026-58.987-.129z" fill="#1B1C55"/><path d="M35.182 60.707v-5.262l-17.514-.051-17.54-.078V37.093l17.54-.077 17.514-.052v-5.262c0-4.03.077-5.262.334-5.262.154 0 1.669.898 3.312 2.002 3.647 2.387 9.502 6.212 13.688 8.933 7.216 4.672 9.86 6.392 11.607 7.495 1.027.668 1.875 1.258 1.875 1.335 0 .077-1.618 1.18-3.595 2.439a4752.292 4752.292 0 01-8.732 5.647c-2.799 1.848-6.188 4.03-7.498 4.877-1.31.847-4.237 2.72-6.472 4.158-2.26 1.463-4.185 2.644-4.314 2.644-.103 0-.205-2.361-.205-5.262z" fill="#1B1C55"/></g><defs><clipPath id="iclip0_187_246"><path fill="#fff" d="M0 0h118v120H0z"/></clipPath></defs></svg></svg>