<svg width="14" height="24" fill="none" xmlns="http://www.w3.org/2000/svg"><path d="M11.226 23.525L.355 12.887a1.101 1.101 0 01-.274-.412A1.368 1.368 0 010 12c0-.169.027-.327.081-.475.054-.148.145-.285.274-.412L11.225.444c.302-.295.678-.443 1.13-.443.451 0 .838.158 1.161.475.323.317.484.686.484 1.108 0 .422-.161.792-.484 1.108L4.032 12l9.484 9.309c.301.295.452.66.452 1.091 0 .434-.162.808-.484 1.125a1.562 1.562 0 01-1.13.475c-.43 0-.806-.158-1.128-.475z" fill="#fff"/></svg>.37467 13.5161 2.69129L4.03226 12L13.5161 21.3087C13.8172 21.6042 13.9677 21.9681 13.9677 22.4004C13.9677 22.8336 13.8065 23.2084 13.4839 23.5251C13.1613 23.8417 12.7849 24 12.3548 24C11.9247 24 11.5484 23.8417 11.2258 23.5251Z" fill="white"/>
</svg>
