<svg width="264" height="55" viewBox="0 0 264 55" fill="none" xmlns="http://www.w3.org/2000/svg">
<path d="M27.0361 44.3192H9.35866V31.6388H27.0361C30.4615 31.6388 33.2753 34.4981 33.2753 37.979C33.2753 41.5221 30.4615 44.3192 27.0361 44.3192ZM27.0361 10.567C30.2169 10.567 32.7247 13.1776 32.7247 16.3477C32.7247 19.58 30.1557 22.1285 27.0361 22.1285H9.35866V10.567H27.0361ZM42.0834 16.3477C42.0834 7.89412 35.355 1.05664 27.0361 1.05664H0V53.8295H26.975C35.5996 53.8295 42.5116 46.7434 42.5116 37.979C42.5116 33.6279 40.7377 29.6497 37.924 26.7904C40.5542 24.0554 42.0834 20.3881 42.0834 16.3477ZM131.082 22.1907H113.466V10.567H131.144C134.324 10.567 136.832 13.1776 136.832 16.3477C136.832 19.58 134.263 22.1907 131.082 22.1907ZM146.13 16.3477C146.13 7.89412 139.401 1.05664 131.082 1.05664H104.108V53.8295H113.466V31.6388H131.144C134.569 31.6388 137.383 34.4981 137.383 37.979V53.8295H146.741V37.979C146.741 33.6279 144.968 29.6497 142.154 26.7904C144.601 24.0554 146.13 20.3881 146.13 16.3477ZM161.177 27.4742C161.177 18.1503 168.639 10.567 177.815 10.567H193.412V1.05664H177.815C163.501 1.05664 151.88 12.8668 151.88 27.412C151.88 41.9572 163.501 53.7674 177.815 53.7674H193.412V44.3192H177.815C168.639 44.3192 161.177 36.798 161.177 27.4742Z" fill="#F00000"/>
<path d="M223.752 45.376C214.026 45.376 206.074 37.3575 206.074 27.4121C206.074 17.5288 213.965 9.44815 223.752 9.44815C233.477 9.44815 241.429 17.4667 241.429 27.4121C241.429 37.3575 233.477 45.376 223.752 45.376ZM255.681 22.1907C252.623 22.1907 249.993 20.2638 248.892 17.4667C244.977 7.27259 235.19 0 223.752 0C212.313 0 202.526 7.21043 198.612 17.4667C197.572 20.2016 194.942 22.1907 191.822 22.1907H183.503V32.7577H191.822C194.88 32.7577 197.511 34.7468 198.612 37.4818C202.526 47.6759 212.313 54.9485 223.752 54.9485C235.19 54.9485 244.977 47.6759 248.892 37.4818C249.931 34.7468 252.562 32.8199 255.681 32.8199H264V22.2529H255.681V22.1907Z" fill="#F00000"/>
<path d="M223.752 17.3423C218.247 17.3423 213.781 21.8799 213.781 27.4742C213.781 33.0685 218.247 37.6061 223.752 37.6061C229.257 37.6061 233.722 33.0685 233.722 27.4742C233.722 21.8799 229.257 17.3423 223.752 17.3423ZM84.6562 27.4742H60.8007V21.6935C60.8007 14.9803 66.1223 9.57247 72.7284 9.57247C79.3346 9.57247 84.6562 14.9803 84.6562 21.6935V27.4742ZM72.7284 0C60.9842 0 51.4421 9.69679 51.4421 21.6313V53.8296H60.8007V36.9845H84.6562V53.8296H94.0148V21.6313C93.9537 9.69679 84.4727 0 72.7284 0Z" fill="#F00000"/>
</svg>
