<svg width="534" height="133" viewBox="0 0 534 133" fill="none" xmlns="http://www.w3.org/2000/svg">
<path d="M107.413 133L102.706 134.686L103.893 138H107.413V133ZM97.8133 106.2L102.52 104.514L101.333 101.2H97.8133V106.2ZM45.6133 106.2V101.2H42.0433L40.8842 104.577L45.6133 106.2ZM36.4133 133V138H39.9833L41.1424 134.623L36.4133 133ZM0.413269 133L-4.28217 131.282L-6.74084 138H0.413269V133ZM49.0133 0.199997V-4.8H45.5188L44.3178 -1.51837L49.0133 0.199997ZM102.613 0.199997L107.325 -1.47449L106.143 -4.8H102.613V0.199997ZM149.813 133V138H156.897L154.525 131.326L149.813 133ZM59.8133 79.6V74.6H58.7921L57.8528 75.0004L59.8133 79.6ZM82.6133 79.6L84.3844 74.9242L83.5285 74.6H82.6133V79.6ZM95.8133 84.6L94.0422 89.2758L110.968 95.687L99.7335 81.4965L95.8133 84.6ZM88.2133 75L83.341 76.1229L83.5939 77.2204L84.293 78.1035L88.2133 75ZM76.4133 23.8L71.49 24.6725L71.5123 24.7983L71.541 24.9229L76.4133 23.8ZM73.6133 8L78.5366 7.12752L77.8051 3H73.6133V8ZM71.2133 8V3H66.9602L66.278 7.19802L71.2133 8ZM68.6133 24L73.4492 25.2706L73.5101 25.0387L73.5485 24.802L68.6133 24ZM55.2133 75L59.1644 78.0641L59.7898 77.2576L60.0491 76.2706L55.2133 75ZM47.6133 84.8L43.6622 81.7359L31.8655 96.9474L49.5738 89.3996L47.6133 84.8ZM112.12 131.314L102.52 104.514L93.1062 107.886L102.706 134.686L112.12 131.314ZM97.8133 101.2H45.6133V111.2H97.8133V101.2ZM40.8842 104.577L31.6842 131.377L41.1424 134.623L50.3424 107.823L40.8842 104.577ZM36.4133 128H0.413269V138H36.4133V128ZM5.10873 134.718L53.7087 1.91836L44.3178 -1.51837L-4.28217 131.282L5.10873 134.718ZM49.0133 5.2H102.613V-4.8H49.0133V5.2ZM97.902 1.87448L145.102 134.674L154.525 131.326L107.325 -1.47449L97.902 1.87448ZM149.813 128H107.413V138H149.813V128ZM59.8133 84.6H82.6133V74.6H59.8133V84.6ZM80.8422 84.2758L94.0422 89.2758L97.5844 79.9242L84.3844 74.9242L80.8422 84.2758ZM99.7335 81.4965L92.1335 71.8965L84.293 78.1035L91.8931 87.7035L99.7335 81.4965ZM93.0856 73.8771L81.2856 22.6771L71.541 24.9229L83.341 76.1229L93.0856 73.8771ZM81.3365 22.9275L78.5366 7.12752L68.69 8.87248L71.49 24.6725L81.3365 22.9275ZM73.6133 3H71.2133V13H73.6133V3ZM66.278 7.19802L63.678 23.198L73.5485 24.802L76.1486 8.80198L66.278 7.19802ZM63.7774 22.7294L50.3774 73.7294L60.0491 76.2706L73.4492 25.2706L63.7774 22.7294ZM51.2622 71.9359L43.6622 81.7359L51.5644 87.8641L59.1644 78.0641L51.2622 71.9359ZM49.5738 89.3996L61.7738 84.1996L57.8528 75.0004L45.6528 80.2004L49.5738 89.3996ZM175.03 133H170.03V138H175.03V133ZM175.03 0.199997V-4.8H170.03V0.199997H175.03ZM239.43 97.2V92.2H239.402L239.374 92.2003L239.43 97.2ZM221.63 97.4L219.511 101.928L220.545 102.413L221.687 102.4L221.63 97.4ZM212.23 93L214.35 88.4715L204.476 83.8496L207.416 94.3481L212.23 93ZM215.03 103H220.03V102.313L219.845 101.652L215.03 103ZM215.03 133V138H220.03V133H215.03ZM212.03 72.8L208.907 76.7043L210.984 78.3656L213.522 77.5724L212.03 72.8ZM221.63 69.8V64.8H220.867L220.139 65.0276L221.63 69.8ZM221.03 27.4L219.395 32.1249L220.19 32.4H221.03V27.4ZM210.63 23.8L212.266 19.0751L209.308 18.0512L207.095 20.2645L210.63 23.8ZM209.83 24.6L206.295 21.0644L203.681 23.6783L205.414 26.9436L209.83 24.6ZM215.03 34.4H220.03V33.1556L219.447 32.0564L215.03 34.4ZM215.03 63.8L219.524 65.9921L220.03 64.9545V63.8H215.03ZM211.03 72L206.537 69.8079L204.782 73.4045L207.907 75.9043L211.03 72ZM180.03 133V0.199997H170.03V133H180.03ZM175.03 5.2H238.83V-4.8H175.03V5.2ZM238.83 5.2C256.886 5.2 270.409 9.21919 279.326 16.3746C288.068 23.3897 293.03 33.939 293.03 48.6H303.03C303.03 31.461 297.093 17.8103 285.585 8.57535C274.252 -0.519211 258.175 -4.8 238.83 -4.8V5.2ZM293.03 48.6C293.03 63.4666 288.014 74.0692 279.317 81.0829C270.448 88.2347 257.077 92.2 239.43 92.2V102.2C258.384 102.2 274.312 97.9653 285.594 88.8671C297.047 79.6308 303.03 65.9334 303.03 48.6H293.03ZM239.374 92.2003L221.574 92.4003L221.687 102.4L239.487 102.2L239.374 92.2003ZM223.75 92.8716L214.35 88.4715L210.111 97.5285L219.511 101.928L223.75 92.8716ZM207.416 94.3481L210.216 104.348L219.845 101.652L217.045 91.6519L207.416 94.3481ZM210.03 103V133H220.03V103H210.03ZM215.03 128H175.03V138H215.03V128ZM213.522 77.5724L223.122 74.5724L220.139 65.0276L210.539 68.0276L213.522 77.5724ZM221.63 74.8H235.83V64.8H221.63V74.8ZM235.83 74.8C243.954 74.8 250.658 72.6716 255.216 67.6269C259.68 62.6857 261.23 55.8716 261.23 48.4H251.23C251.23 54.7284 249.881 58.6142 247.795 60.9231C245.803 63.1284 242.307 64.8 235.83 64.8V74.8ZM261.23 48.4C261.23 41.0936 259.665 34.4303 255.382 29.5695C250.99 24.5854 244.555 22.4 236.83 22.4V32.4C242.706 32.4 245.971 34.0146 247.879 36.1805C249.896 38.4697 251.23 42.3064 251.23 48.4H261.23ZM236.83 22.4H221.03V32.4H236.83V22.4ZM222.666 22.6751L212.266 19.0751L208.995 28.5249L219.395 32.1249L222.666 22.6751ZM207.095 20.2645L206.295 21.0644L213.366 28.1355L214.166 27.3355L207.095 20.2645ZM205.414 26.9436L210.614 36.7436L219.447 32.0564L214.247 22.2564L205.414 26.9436ZM210.03 34.4V63.8H220.03V34.4H210.03ZM210.537 61.6079L206.537 69.8079L215.524 74.1921L219.524 65.9921L210.537 61.6079ZM207.907 75.9043L208.907 76.7043L215.154 68.8956L214.154 68.0956L207.907 75.9043ZM327.57 133H322.57V138H327.57V133ZM327.57 0.199997V-4.8H322.57V0.199997H327.57ZM369.37 0.199997H374.37V-4.8H369.37V0.199997ZM369.37 133V138H374.37V133H369.37ZM332.57 133V0.199997H322.57V133H332.57ZM327.57 5.2H369.37V-4.8H327.57V5.2ZM364.37 0.199997V133H374.37V0.199997H364.37ZM369.37 128H327.57V138H369.37V128ZM393.368 133L389.289 130.108L383.694 138H393.368V133ZM435.768 73.2L433.961 68.5378L432.559 69.0812L431.689 70.308L435.768 73.2ZM451.768 67L453.575 71.6622L456.768 70.4248V67H451.768ZM451.768 63.8H456.768V60.211L453.368 59.0628L451.768 63.8ZM436.368 58.6L432.138 61.2656L433.085 62.7688L434.768 63.3372L436.368 58.6ZM399.568 0.199997V-4.8H390.507L395.338 2.86559L399.568 0.199997ZM444.768 0.199997L449.153 -2.20268L447.73 -4.8H444.768V0.199997ZM460.768 29.4L465.756 29.0493L465.679 27.9573L465.153 26.9973L460.768 29.4ZM462.568 55L457.58 55.3507L457.907 60H462.568V55ZM466.768 55V60H470.657L471.614 56.2308L466.768 55ZM473.168 29.8L468.909 27.1811L468.509 27.8304L468.322 28.5692L473.168 29.8ZM491.368 0.199997V-4.8H488.573L487.109 -2.41889L491.368 0.199997ZM532.368 0.199997L536.444 3.09554L542.053 -4.8H532.368V0.199997ZM491.168 58.2L492.729 62.9501L494.292 62.4367L495.244 61.0955L491.168 58.2ZM477.168 62.8L475.607 58.0498L472.168 59.1799V62.8H477.168ZM477.168 66.2H472.168V70.1472L476.007 71.0634L477.168 66.2ZM494.768 70.4L499.012 67.7561L497.926 66.0132L495.929 65.5366L494.768 70.4ZM533.768 133V138H542.774L538.012 130.356L533.768 133ZM488.368 133L484.033 135.492L485.475 138H488.368V133ZM469.168 99.6L464.187 100.038L464.284 101.136L464.833 102.092L469.168 99.6ZM466.968 74.6L471.949 74.1617L471.547 69.6H466.968V74.6ZM462.968 74.6V69.6H459.204L458.163 73.2168L462.968 74.6ZM455.368 101L459.655 103.572L459.992 103.012L460.173 102.383L455.368 101ZM436.168 133V138H438.999L440.455 135.572L436.168 133ZM397.447 135.892L439.847 76.092L431.689 70.308L389.289 130.108L397.447 135.892ZM437.575 77.8622L453.575 71.6622L449.961 62.3378L433.961 68.5378L437.575 77.8622ZM456.768 67V63.8H446.768V67H456.768ZM453.368 59.0628L437.968 53.8628L434.768 63.3372L450.168 68.5372L453.368 59.0628ZM440.598 55.9344L403.798 -2.46561L395.338 2.86559L432.138 61.2656L440.598 55.9344ZM399.568 5.2H444.768V-4.8H399.568V5.2ZM440.383 2.60267L456.383 31.8027L465.153 26.9973L449.153 -2.20268L440.383 2.60267ZM455.78 29.7507L457.58 55.3507L467.556 54.6493L465.756 29.0493L455.78 29.7507ZM462.568 60H466.768V50H462.568V60ZM471.614 56.2308L478.014 31.0308L468.322 28.5692L461.922 53.7692L471.614 56.2308ZM477.427 32.4189L495.627 2.81888L487.109 -2.41889L468.909 27.1811L477.427 32.4189ZM491.368 5.2H532.368V-4.8H491.368V5.2ZM528.292 -2.69555L487.092 55.3045L495.244 61.0955L536.444 3.09554L528.292 -2.69555ZM489.607 53.4498L475.607 58.0498L478.729 67.5502L492.729 62.9501L489.607 53.4498ZM472.168 62.8V66.2H482.168V62.8H472.168ZM476.007 71.0634L493.607 75.2634L495.929 65.5366L478.329 61.3366L476.007 71.0634ZM490.524 73.0439L529.524 135.644L538.012 130.356L499.012 67.7561L490.524 73.0439ZM533.768 128H488.368V138H533.768V128ZM492.703 130.508L473.503 97.1081L464.833 102.092L484.033 135.492L492.703 130.508ZM474.149 99.1617L471.949 74.1617L461.987 75.0383L464.187 100.038L474.149 99.1617ZM466.968 69.6H462.968V79.6H466.968V69.6ZM458.163 73.2168L450.563 99.6168L460.173 102.383L467.773 75.9832L458.163 73.2168ZM451.081 98.4275L431.88 130.428L440.455 135.572L459.655 103.572L451.081 98.4275ZM436.168 128H393.368V138H436.168V128Z" fill="url(#paint0_linear_17_21)"/>
<defs>
<linearGradient id="paint0_linear_17_21" x1="268" y1="-100" x2="268" y2="200" gradientUnits="userSpaceOnUse">
<stop stop-color="white"/>
<stop offset="1" stop-color="white" stop-opacity="0"/>
</linearGradient>
</defs>
</svg>
